<svg width="547" height="396" viewBox="0 0 547 396" fill="none" xmlns="http://www.w3.org/2000/svg">
<path opacity="0.6" d="M317.818 70.4037C282.751 69.1842 249.325 57.8558 217.456 45.4642C185.586 33.0725 153.999 19.3403 119.753 12.7741C97.7341 8.54612 72.5528 7.95147 54.8151 19.7636C37.7422 31.1273 32.2275 50.7454 29.2612 68.9474C27.0301 82.6442 25.7358 97.0567 31.8347 109.882C36.0803 118.781 43.6145 126.265 48.827 134.791C66.9575 164.458 54.1403 201.043 34.4888 230.034C25.2725 243.64 14.5805 256.586 7.4693 271.054C0.358105 285.522 -2.9356 302.096 3.28921 316.852C9.45862 331.466 24.1544 342.461 40.079 350.187C72.4219 365.864 110.531 370.349 147.694 372.919C229.956 378.548 312.661 376.109 395.14 373.67C425.665 372.763 456.325 371.851 486.352 367.119C503.027 364.493 520.245 360.331 532.353 350.282C547.718 337.523 551.531 315.924 541.232 299.925C523.957 273.095 476.198 266.428 464.121 237.633C457.479 221.785 464.303 204.127 473.962 189.427C494.676 157.896 529.406 130.231 531.235 94.1843C532.494 69.4261 515.798 44.6377 489.983 32.9213C462.928 20.6304 425.408 22.1825 405.449 42.496C384.896 63.4243 348.776 71.4771 317.818 70.4037Z" fill="#587EEC"/>
<path d="M122.004 366.217C122.004 366.217 94.3044 345.263 89.0718 318.61C86.9498 307.416 81.258 297.212 72.85 289.528C68.8278 285.914 64.4836 282.675 59.8716 279.853" stroke="#9AB1F3" stroke-width="2" stroke-miterlimit="10"/>
<path d="M56.4822 263.062C58.9097 266.348 60.0076 280.271 60.0076 280.271C60.0076 280.271 47.0291 275.156 44.5966 271.876C43.4286 270.299 42.9345 268.322 43.223 266.38C43.5115 264.439 44.5591 262.691 46.1352 261.523C47.7113 260.354 49.6869 259.859 51.6273 260.148C53.5678 260.437 55.3141 261.485 56.4822 263.062Z" fill="#587EEC"/>
<path d="M79.7599 273.987C80.0117 278.064 73.3789 290.35 73.3789 290.35C73.3789 290.35 65.2554 278.991 64.9986 274.914C64.9009 272.971 65.5725 271.067 66.8679 269.616C68.1633 268.164 69.9781 267.282 71.9191 267.16C73.8601 267.038 75.771 267.686 77.2377 268.964C78.7044 270.242 79.6087 272.047 79.7548 273.987H79.7599Z" fill="#587EEC"/>
<path d="M102.322 305.392C100.489 309.041 88.5581 316.297 88.5581 316.297C88.5581 316.297 87.2839 302.389 89.1171 298.74C90.0195 297.025 91.5591 295.732 93.4044 295.14C95.2497 294.549 97.2533 294.706 98.9841 295.578C100.715 296.45 102.034 297.967 102.659 299.802C103.283 301.638 103.162 303.645 102.322 305.392Z" fill="#587EEC"/>
<path d="M114.051 332.988C112.858 336.893 102.327 346.06 102.327 346.06C102.327 346.06 98.7161 332.569 99.9097 328.659C100.483 326.782 101.778 325.211 103.51 324.29C105.242 323.369 107.268 323.174 109.144 323.748C111.019 324.322 112.59 325.618 113.51 327.351C114.43 329.083 114.625 331.111 114.051 332.988Z" fill="#587EEC"/>
<path d="M61.3724 300.227C65.4014 300.771 78.1381 295.016 78.1381 295.016C78.1381 295.016 67.3907 286.107 63.3415 285.563C61.3981 285.301 59.4305 285.823 57.8717 287.013C56.3128 288.204 55.2903 289.965 55.0292 291.91C54.7681 293.854 55.2897 295.823 56.4792 297.383C57.6688 298.943 59.4289 299.966 61.3724 300.227Z" fill="#587EEC"/>
<path d="M75.499 332.332C79.528 331.642 89.9379 322.344 89.9379 322.344C89.9379 322.344 77.0149 317.063 72.991 317.754C72.0275 317.912 71.1049 318.259 70.2764 318.776C69.4479 319.292 68.7298 319.968 68.1637 320.764C67.5976 321.56 67.1946 322.46 66.978 323.413C66.7614 324.365 66.7354 325.351 66.9017 326.314C67.068 327.276 67.4231 328.197 67.9467 329.021C68.4702 329.846 69.1518 330.558 69.952 331.118C70.7523 331.677 71.6554 332.073 72.6091 332.281C73.5629 332.49 74.5485 332.507 75.5091 332.332H75.499Z" fill="#587EEC"/>
<path d="M93.5036 361.656C97.588 361.656 109.423 354.253 109.423 354.253C109.423 354.253 97.5829 346.861 93.4986 346.861C91.5378 346.861 89.6573 347.64 88.2708 349.027C86.8843 350.415 86.1053 352.296 86.1053 354.258C86.1053 356.22 86.8843 358.102 88.2708 359.489C89.6573 360.877 91.5378 361.656 93.4986 361.656H93.5036Z" fill="#587EEC"/>
<path d="M391.091 184.988C391.091 184.988 408.164 154.727 433.899 146.009C444.705 142.418 454.057 135.417 460.551 126.058C463.596 121.584 466.225 116.838 468.402 111.882" stroke="#9AB1F3" stroke-width="2" stroke-miterlimit="10"/>
<path d="M484.559 106.339C481.628 109.181 467.984 112.124 467.984 112.124C467.984 112.124 471.333 98.5684 474.264 95.7212C475.679 94.3958 477.558 93.6793 479.495 93.7259C481.433 93.7725 483.274 94.5786 484.624 95.9705C485.973 97.3624 486.723 99.2289 486.711 101.168C486.698 103.107 485.926 104.964 484.559 106.339Z" fill="#587EEC"/>
<path d="M476.843 130.845C472.814 131.642 459.785 126.693 459.785 126.693C459.785 126.693 469.958 117.118 473.962 116.337C474.924 116.124 475.918 116.105 476.887 116.281C477.856 116.457 478.78 116.825 479.604 117.364C480.429 117.902 481.138 118.6 481.689 119.417C482.241 120.233 482.624 121.151 482.816 122.118C483.007 123.084 483.004 124.079 482.807 125.044C482.609 126.01 482.221 126.926 481.664 127.739C481.108 128.552 480.395 129.245 479.567 129.779C478.739 130.312 477.813 130.675 476.843 130.845Z" fill="#587EEC"/>
<path d="M448.761 157.393C444.903 156.057 436.135 145.192 436.135 145.192C436.135 145.192 449.733 142.078 453.601 143.413C454.53 143.722 455.389 144.212 456.127 144.855C456.866 145.498 457.469 146.282 457.903 147.161C458.336 148.039 458.591 148.995 458.652 149.973C458.713 150.951 458.579 151.931 458.259 152.856C457.938 153.782 457.437 154.635 456.785 155.365C456.132 156.096 455.341 156.689 454.458 157.111C453.574 157.533 452.615 157.775 451.637 157.824C450.66 157.872 449.682 157.725 448.761 157.393Z" fill="#587EEC"/>
<path d="M422.955 172.692C418.926 172.027 408.471 162.78 408.471 162.78C408.471 162.78 421.359 157.408 425.383 158.073C427.319 158.392 429.05 159.467 430.195 161.063C431.339 162.659 431.803 164.644 431.484 166.582C431.166 168.52 430.091 170.252 428.496 171.396C426.901 172.541 424.917 173.006 422.98 172.687L422.955 172.692Z" fill="#587EEC"/>
<path d="M448.408 116.095C448.403 120.182 455.812 132.04 455.812 132.04C455.812 132.04 463.21 120.197 463.21 116.115C463.236 115.128 463.064 114.145 462.704 113.226C462.344 112.306 461.804 111.468 461.115 110.76C460.426 110.053 459.603 109.49 458.693 109.106C457.784 108.722 456.806 108.525 455.819 108.525C454.832 108.525 453.855 108.722 452.946 109.106C452.036 109.49 451.213 110.053 450.524 110.76C449.835 111.468 449.295 112.306 448.935 113.226C448.575 114.145 448.403 115.128 448.429 116.115L448.408 116.095Z" fill="#587EEC"/>
<path d="M418.478 134.368C419.697 138.268 430.293 147.364 430.293 147.364C430.293 147.364 433.818 133.849 432.59 129.948C431.952 128.141 430.639 126.652 428.926 125.794C427.214 124.937 425.235 124.777 423.408 125.35C421.58 125.923 420.046 127.183 419.128 128.865C418.211 130.547 417.981 132.52 418.488 134.368H418.478Z" fill="#587EEC"/>
<path d="M391.851 156.123C392.395 160.154 401.299 170.923 401.299 170.923C401.299 170.923 407.046 158.199 406.502 154.152C406.394 153.172 406.091 152.223 405.611 151.361C405.131 150.499 404.484 149.743 403.708 149.135C402.931 148.527 402.041 148.081 401.09 147.823C400.138 147.564 399.145 147.499 398.168 147.63C397.191 147.762 396.25 148.087 395.401 148.588C394.551 149.088 393.811 149.754 393.222 150.545C392.634 151.336 392.209 152.237 391.974 153.195C391.738 154.153 391.697 155.148 391.851 156.123Z" fill="#587EEC"/>
<path opacity="0.25" d="M484.559 106.339C481.628 109.181 467.984 112.124 467.984 112.124C467.984 112.124 471.333 98.5684 474.264 95.7212C475.679 94.3958 477.558 93.6793 479.495 93.7259C481.433 93.7725 483.274 94.5786 484.624 95.9705C485.973 97.3624 486.723 99.2289 486.711 101.168C486.698 103.107 485.926 104.964 484.559 106.339Z" fill="black"/>
<path opacity="0.25" d="M476.843 130.845C472.814 131.642 459.785 126.693 459.785 126.693C459.785 126.693 469.958 117.118 473.962 116.337C474.924 116.124 475.918 116.105 476.887 116.281C477.856 116.457 478.78 116.825 479.604 117.364C480.429 117.902 481.138 118.6 481.689 119.417C482.241 120.233 482.624 121.151 482.816 122.118C483.007 123.084 483.004 124.079 482.807 125.044C482.609 126.01 482.221 126.926 481.664 127.739C481.108 128.552 480.395 129.245 479.567 129.779C478.739 130.312 477.813 130.675 476.843 130.845Z" fill="black"/>
<path opacity="0.25" d="M448.761 157.393C444.903 156.057 436.135 145.192 436.135 145.192C436.135 145.192 449.733 142.078 453.601 143.413C454.53 143.722 455.389 144.212 456.127 144.855C456.866 145.498 457.469 146.282 457.903 147.161C458.336 148.039 458.591 148.995 458.652 149.973C458.713 150.951 458.579 151.931 458.259 152.856C457.938 153.782 457.437 154.635 456.785 155.365C456.132 156.096 455.341 156.689 454.458 157.111C453.574 157.533 452.615 157.775 451.637 157.824C450.66 157.872 449.682 157.725 448.761 157.393Z" fill="black"/>
<path opacity="0.25" d="M422.955 172.692C418.926 172.027 408.471 162.78 408.471 162.78C408.471 162.78 421.359 157.408 425.383 158.073C427.319 158.392 429.05 159.467 430.195 161.063C431.339 162.659 431.803 164.644 431.484 166.582C431.166 168.52 430.091 170.252 428.496 171.396C426.901 172.541 424.917 173.006 422.98 172.687L422.955 172.692Z" fill="black"/>
<path opacity="0.25" d="M448.408 116.095C448.403 120.182 455.812 132.04 455.812 132.04C455.812 132.04 463.21 120.197 463.21 116.115C463.236 115.128 463.064 114.145 462.704 113.226C462.344 112.306 461.804 111.468 461.115 110.76C460.426 110.053 459.603 109.49 458.693 109.106C457.784 108.722 456.806 108.525 455.819 108.525C454.832 108.525 453.855 108.722 452.946 109.106C452.036 109.49 451.213 110.053 450.524 110.76C449.835 111.468 449.295 112.306 448.935 113.226C448.575 114.145 448.403 115.128 448.429 116.115L448.408 116.095Z" fill="black"/>
<path opacity="0.25" d="M418.478 134.368C419.697 138.268 430.293 147.364 430.293 147.364C430.293 147.364 433.818 133.849 432.59 129.948C431.952 128.141 430.639 126.652 428.926 125.794C427.214 124.937 425.235 124.777 423.408 125.35C421.58 125.923 420.046 127.183 419.128 128.865C418.211 130.547 417.981 132.52 418.488 134.368H418.478Z" fill="black"/>
<path opacity="0.25" d="M391.851 156.123C392.395 160.154 401.299 170.923 401.299 170.923C401.299 170.923 407.046 158.199 406.502 154.152C406.394 153.172 406.091 152.223 405.611 151.361C405.131 150.499 404.484 149.743 403.708 149.135C402.931 148.527 402.041 148.081 401.09 147.823C400.138 147.564 399.145 147.499 398.168 147.63C397.191 147.762 396.25 148.087 395.401 148.588C394.551 149.088 393.811 149.754 393.222 150.545C392.634 151.336 392.209 152.237 391.974 153.195C391.738 154.153 391.697 155.148 391.851 156.123Z" fill="black"/>
<path d="M392.073 184.388C392.073 184.388 395.427 149.798 415.401 131.405C423.825 123.739 429.54 113.548 431.688 102.358C432.665 97.0387 433.153 91.6408 433.143 86.2323" stroke="#9AB1F3" stroke-width="2" stroke-miterlimit="10"/>
<path d="M445.664 74.5613C444.153 78.3509 432.851 86.575 432.851 86.575C432.851 86.575 430.424 72.8227 431.95 69.0331C432.685 67.2135 434.112 65.7603 435.917 64.9934C437.722 64.2265 439.758 64.2086 441.577 64.9437C443.395 65.6788 444.848 67.1066 445.614 68.9131C446.38 70.7196 446.398 72.7567 445.664 74.5764V74.5613Z" fill="#587EEC"/>
<path d="M448.539 100.121C445.2 102.469 431.265 103.24 431.265 103.24C431.265 103.24 436.694 90.3695 440.033 88.0212C440.825 87.4282 441.728 87.0002 442.688 86.7625C443.648 86.5249 444.646 86.4825 445.623 86.6377C446.6 86.793 447.536 87.1428 448.375 87.6665C449.214 88.1901 449.94 88.877 450.509 89.6863C451.078 90.4957 451.48 91.4111 451.689 92.3784C451.898 93.3457 451.911 94.3452 451.728 95.3177C451.544 96.2902 451.167 97.2159 450.62 98.04C450.072 98.8642 449.365 99.57 448.539 100.116V100.121Z" fill="#587EEC"/>
<path d="M433.602 135.789C429.533 136.132 417.113 129.742 417.113 129.742C417.113 129.742 428.294 121.376 432.363 121.034C434.317 120.869 436.257 121.488 437.754 122.755C439.252 124.021 440.186 125.831 440.351 127.786C440.515 129.742 439.896 131.682 438.631 133.181C437.365 134.68 435.556 135.614 433.602 135.779V135.789Z" fill="#587EEC"/>
<path d="M416.222 160.225C412.268 161.232 398.952 157.065 398.952 157.065C398.952 157.065 408.557 146.931 412.51 145.903C414.408 145.41 416.424 145.692 418.114 146.687C419.804 147.682 421.03 149.308 421.522 151.207C422.015 153.106 421.733 155.123 420.739 156.814C419.745 158.505 418.12 159.732 416.222 160.225Z" fill="#587EEC"/>
<path d="M416.574 98.1653C418.226 101.899 429.78 109.756 429.78 109.756C429.78 109.756 431.744 95.9279 430.092 92.1938C429.269 90.4467 427.795 89.091 425.987 88.4165C424.178 87.7419 422.177 87.8019 420.412 88.5836C418.647 89.3654 417.257 90.8069 416.54 92.6002C415.823 94.3934 415.835 96.3961 416.574 98.1805V98.1653Z" fill="#587EEC"/>
<path d="M396.611 127C399.305 130.069 412.671 134.091 412.671 134.091C412.671 134.091 410.415 120.308 407.721 117.239C407.085 116.494 406.307 115.882 405.433 115.44C404.558 114.998 403.605 114.734 402.628 114.663C401.651 114.593 400.67 114.718 399.741 115.03C398.813 115.342 397.955 115.836 397.219 116.483C396.483 117.13 395.883 117.916 395.453 118.797C395.024 119.678 394.773 120.636 394.716 121.614C394.66 122.593 394.798 123.573 395.123 124.498C395.448 125.422 395.954 126.273 396.611 127Z" fill="#587EEC"/>
<path d="M381.054 157.7C383.189 161.177 395.684 167.401 395.684 167.401C395.684 167.401 395.79 153.437 393.67 149.954C392.614 148.347 390.974 147.213 389.098 146.795C387.221 146.377 385.256 146.706 383.618 147.714C381.98 148.721 380.799 150.328 380.325 152.192C379.851 154.056 380.122 156.032 381.079 157.7H381.054Z" fill="#587EEC"/>
<path d="M366.388 48.9262C367.224 45.8573 368.231 42.7732 368.936 39.664C368.09 42.7732 367.078 45.8674 366.388 48.9262Z" fill="url(#paint0_linear)"/>
<path d="M362.641 78.4869C362.571 78.3659 362.52 78.245 362.465 78.1341C362.465 78.0837 362.414 78.0434 362.394 77.993C362.285 78.0448 362.172 78.0903 362.057 78.1291C361.835 78.2147 361.609 78.2954 361.377 78.3609C361.145 78.4264 361.05 78.4617 360.873 78.502C360.727 78.5524 360.577 78.5911 360.425 78.6179L360.465 78.7086C360.652 78.6683 360.833 78.633 361.019 78.5826L361.07 79.2075C361.281 79.2075 361.478 79.1773 361.669 79.1773C361.76 79.1723 361.85 79.1723 361.941 79.1773C362.334 79.1773 362.676 79.1773 362.948 79.1773C362.842 78.9505 362.732 78.7136 362.641 78.4869ZM464.877 241.322C462.51 238.132 457.786 203.895 457.786 203.895C457.786 203.895 448.494 179.55 451.027 169.835C453.561 160.119 444.107 135.26 444.107 135.26C444.107 135.26 437.863 132.544 437.525 128.512C437.525 128.512 412.027 120.449 410.833 114.402C409.866 109.443 394.052 105.886 388.371 104.762C386.639 97.7673 384.896 91.2414 383.612 87.6786C383.265 86.5699 382.937 85.6125 382.635 84.8566C380.464 79.3133 373.756 78.8094 368.891 79.2528C368.68 78.3081 368.289 77.4131 367.738 76.6173C367.657 76.3437 367.498 76.1 367.279 75.9168C367.175 75.8278 367.064 75.7469 366.947 75.6749C366.859 75.5116 366.743 75.3649 366.605 75.2415C366.466 75.117 366.314 75.0088 366.151 74.919C366.034 74.8557 365.913 74.8001 365.789 74.7527C365.497 74.6415 365.195 74.5588 364.887 74.5058C364.529 74.432 364.165 74.3848 363.799 74.3647C364.688 73.9756 365.481 73.3959 366.121 72.6664C366.557 72.1543 366.881 71.5571 367.073 70.9128C367.232 70.3769 367.304 69.8187 367.284 69.2599C367.154 69.4901 367.002 69.7078 366.831 69.9099C367.043 67.6775 365.864 65.4098 365.189 63.1875C364.372 60.2943 364.22 57.2533 364.746 54.2931C365.421 49.8283 367.093 45.313 368.226 40.7676C368.229 40.7424 368.229 40.7171 368.226 40.692C368.82 38.4346 369.188 36.1236 369.324 33.7931C369.521 29.0915 368.317 24.3999 366.383 20.1164C364.666 16.3218 362.132 12.5877 358.254 11.0457C355.374 9.88158 352.145 10.068 349.043 9.87654C342.083 9.44316 335.445 6.99405 328.828 4.76667C322.21 2.53929 315.401 0.513487 308.436 0.901515C301.471 1.28954 294.304 4.65077 291.126 10.8189C290.119 12.7439 289.54 14.8856 288.336 16.6947C286.08 20.1064 282.041 21.8147 278.672 24.168C275.302 26.5214 272.336 29.8625 271.117 33.8486C270.452 35.9961 270.358 38.2803 270.845 40.4753C270.955 40.971 271.096 41.4591 271.268 41.9367C271.746 43.2682 272.492 44.4876 273.459 45.5196C274.189 46.2824 275.027 46.9328 275.947 47.4497C277.102 48.0905 278.339 48.572 279.623 48.8809C279.578 49.032 279.533 49.1933 279.482 49.3495C279.402 49.6065 279.331 49.8535 279.256 50.1306C279.09 50.7505 278.933 51.3804 278.803 52.0153C278.797 52.0605 278.797 52.1062 278.803 52.1514C278.184 55.0177 277.873 57.942 277.876 60.8744C277.875 62.2613 277.945 63.6473 278.087 65.0268C280.102 85.4764 296.973 101.607 317.818 102.655C318.534 102.691 319.254 102.711 319.984 102.711C320.316 102.711 320.644 102.711 320.991 102.711C321.319 103.144 321.641 103.588 321.948 104.021C322.255 104.454 322.537 104.898 322.804 105.331L322.074 104.575L321.344 103.905C321.146 104.177 320.925 104.432 320.684 104.666C320.208 104.499 319.722 104.36 319.229 104.253C317.138 103.789 313.956 103.618 309.765 104.883C305.913 106.037 301.204 108.41 295.694 112.921L268.846 129.046L254.321 137.885L249.089 150.685C249.089 150.685 245.155 165.894 240.779 183.32C240.608 183.37 240.441 183.421 240.275 183.481C239.921 183.441 239.564 183.42 239.207 183.421C236.668 183.415 234.226 184.394 232.392 186.152C230.559 187.91 229.478 190.31 229.377 192.849C220.674 203.432 220.181 214.014 222.225 218.872C222.41 219.327 222.643 219.761 222.92 220.167C224.26 222.102 226.763 227.091 229.301 232.408C229.236 232.846 229.195 233.214 229.175 233.491C229.171 233.582 229.171 233.673 229.175 233.763C229.175 233.763 230.686 256.597 225.65 263.143C224.547 264.569 224.713 266.443 225.65 268.52C229.024 275.988 242.365 285.961 242.365 285.961C242.365 285.961 258.365 285.875 267.28 284.902C267.254 285.799 267.234 286.691 267.214 287.563C267.013 296.372 267.013 303.754 267.013 303.754L266.68 312.992C266.68 312.992 263.659 332.458 262.148 337.825C261.196 341.192 262.294 372.36 263.251 395.274H420.895C422.749 381.718 420.135 340.531 420.135 340.531C420.135 340.531 417.652 329.883 417.561 320.601C417.556 320.591 417.554 320.579 417.554 320.568C417.554 320.557 417.556 320.546 417.561 320.535C417.561 319.724 417.561 318.933 417.592 318.157L418.735 318.117L420.79 318.046H420.976C420.976 318.046 421.026 317.854 421.142 317.542C421.414 316.764 421.785 316.024 422.245 315.34C423.121 314.045 424.491 312.775 426.551 312.689C427.689 312.644 429.452 311.722 431.441 310.361C431.455 310.364 431.468 310.364 431.482 310.361C436.835 306.738 443.911 300.051 445.628 298.952C447.99 297.44 459.302 287.362 459.302 287.362C459.302 287.362 460.989 285.225 462.787 282.65L462.852 282.559C465.088 279.334 467.466 275.479 466.881 274.264C465.874 272.087 467.556 266.882 467.556 266.882C472.809 257.262 467.244 244.512 464.877 241.322ZM367.491 86.323C367.539 86.4734 367.57 86.6291 367.582 86.7866C367.456 86.6203 367.33 86.4439 367.204 86.2827L367.083 86.1214L366.997 86.0005L367.189 85.7384C367.189 85.7384 367.189 85.7384 367.189 85.7737C367.322 85.9371 367.424 86.1232 367.491 86.323ZM365.799 81.8582C365.25 81.969 364.817 82.0698 364.535 82.1454C364.177 81.5105 363.835 80.8755 363.527 80.2305C364.335 80.6992 365.095 81.2442 365.799 81.8582ZM364.852 82.6544C364.851 82.6443 364.851 82.6342 364.852 82.6241L364.892 82.6544C365.099 82.7904 365.3 82.9215 365.487 83.0575C365.653 83.1785 365.804 83.2944 365.955 83.4153C365.854 83.5917 365.743 83.7731 365.633 83.9192C365.456 83.6421 365.29 83.375 365.129 83.0978C365.028 82.987 364.938 82.8358 364.852 82.6544ZM361.83 76.4359C362.803 76.3398 363.783 76.3398 364.756 76.4359C364.892 76.4359 365.013 76.4611 365.134 76.4812C365.407 76.5235 365.675 76.5927 365.935 76.6878C366.53 77.521 366.896 78.4958 366.997 79.5149L366.725 79.5552L366.459 79.6056C365.955 79.6913 365.451 79.7769 365.058 79.8576L364.555 79.9634C363.885 80.1095 363.497 80.2204 363.482 80.2254C363.417 80.0894 363.351 79.9634 363.281 79.8324C363.17 79.6157 363.054 79.3939 362.953 79.1773C362.853 78.9606 362.722 78.7136 362.616 78.4869C362.545 78.3659 362.495 78.245 362.44 78.1341C362.44 78.0837 362.389 78.0434 362.369 77.993C362.34 77.9396 362.314 77.884 362.294 77.8267C361.986 77.2018 361.704 76.577 361.432 75.9622C361.402 75.9017 361.377 75.8362 361.352 75.7757L361.735 75.7505V75.8815L361.83 76.4359ZM241.67 389.045C241.63 381.541 241.086 373.423 239.575 365.804C238.93 362.563 238.266 359.323 237.591 356.138C237.42 355.342 237.253 354.556 237.087 353.77L235.536 353.976H235.395C231.165 334.016 226.743 316.428 226.743 316.428C226.743 316.428 217.96 282.872 218.977 280.196C219.108 279.848 218.942 278.911 218.569 277.535C216.444 269.905 207.57 248.881 204.467 241.695C204.467 241.665 204.442 241.63 204.432 241.605C203.929 240.4 203.566 239.589 203.455 239.352L204.185 228.628L204.226 227.983L204.321 226.613L204.281 226.577L204.321 225.942C204.321 225.942 196.656 219.653 183.673 215.113C183.169 214.931 182.635 214.755 182.106 214.584C182.756 210.245 183.617 205.347 184.74 200.574C184.846 200.096 184.962 199.632 185.083 199.163C185.189 198.695 185.309 198.241 185.43 197.783C185.622 197.037 185.828 196.301 186.04 195.575C186.74 195.354 187.43 195.107 188.11 194.845L188.372 194.744C196.747 191.483 203.658 185.295 207.825 177.327C211.992 169.359 213.132 160.15 211.035 151.406C209.839 146.446 207.63 141.788 204.548 137.724C204.316 137.412 204.07 137.099 203.823 136.792C203.576 136.484 203.279 136.142 203.002 135.829C204.457 132.518 206.175 129.369 206.316 126.149C206.341 125.741 206.341 125.332 206.316 124.924V124.874C206.129 122.803 205.213 120.706 203.077 118.504C199.96 115.274 195.523 113.636 191.086 112.85C186.649 112.064 182.127 112.044 177.664 111.515C170.266 110.628 163.059 108.345 155.661 107.644C146.548 106.8 137.374 108.364 129.055 112.18C123.55 114.699 117.975 119.104 117.642 125.146C117.37 130.14 120.845 134.927 119.969 139.861C119.098 144.709 114.162 148.523 114.595 153.427C114.762 155.342 115.744 157.055 116.973 158.582C117.396 159.086 117.844 159.59 118.307 160.094C120.1 161.993 122.074 163.818 123.077 166.211C123.117 166.312 123.157 166.413 123.192 166.514C124.043 168.877 123.661 171.865 121.556 173.221C121.567 173.23 121.576 173.242 121.581 173.256C121.611 173.297 121.641 173.327 121.666 173.367C121.669 173.359 121.669 173.35 121.666 173.342C122.413 174.227 123.419 174.855 124.542 175.136L124.97 175.267C124.623 175.645 124.295 176.038 123.963 176.451L123.746 176.738C123.191 177.485 122.687 178.268 122.235 179.082C121.979 179.535 121.732 179.989 121.525 180.442C120.835 181.825 120.335 183.295 120.04 184.811C119.501 188.147 120.261 191.625 119.445 194.89C118.438 198.922 115.25 202.016 113.452 205.76C110.048 212.815 111.977 221.095 112.662 228.885C113.593 239.468 112.082 250.096 110.577 260.608C109.777 266.198 108.978 271.793 108.179 277.394C106.165 291.45 104.15 305.506 102.136 319.563C101.4 324.713 100.529 330.145 97.0995 334.121H97.1348C97.1348 334.121 97.1348 334.152 97.0995 334.162C98.1291 334.612 99.224 334.894 100.343 334.998C104.82 335.447 109.564 333.28 113.593 330.911C116.784 329.066 119.806 326.943 122.623 324.567C122.21 326.079 121.767 327.727 121.294 329.5C121.295 329.517 121.295 329.534 121.294 329.551C115.608 351.22 106.462 390.945 106.462 390.945C106.462 390.945 105.631 392.673 104.553 395.248H246.576C244.914 393.233 243.367 391.303 242.159 389.745L241.67 389.045ZM136.513 188.682C136.548 188.621 136.574 188.566 136.609 188.51C136.609 188.672 136.609 188.828 136.609 188.979C136.609 189.13 136.609 189.266 136.609 189.407C136.609 189.548 136.609 189.533 136.609 189.604C136.609 189.674 136.609 189.604 136.609 189.604C136.609 189.81 136.564 190.017 136.528 190.224C136.528 190.224 136.528 190.249 136.528 190.269L137.032 190.455L137.616 190.697C141.068 192.061 144.563 193.296 148.102 194.401C148.464 194.517 148.832 194.628 149.2 194.734L149.275 195.359C149.366 195.999 149.451 196.649 149.532 197.299C149.532 197.299 149.532 197.329 149.532 197.349C149.759 199.148 149.98 200.942 150.177 202.696C150.177 202.696 140.93 199.168 141.046 204.525C141.041 204.621 141.041 204.717 141.046 204.812C141.036 204.94 141.036 205.068 141.046 205.195C141.131 209.368 142.436 211.842 142.698 213.112C142.682 213.165 142.654 213.213 142.617 213.253C142.394 213.74 142.317 214.281 142.396 214.811C142.387 215.712 142.458 216.612 142.607 217.501C142.335 217.668 142.068 217.834 141.801 218.005C141.6 218.131 141.408 218.273 141.212 218.414C139.977 214.125 138.36 209.956 136.382 205.956C134.997 203.104 133.441 200.131 133.456 197.002C133.456 196.8 133.456 196.593 133.481 196.387C133.538 195.48 133.71 194.584 133.995 193.721C134.111 193.393 134.237 193.071 134.378 192.753C134.707 191.999 135.075 191.262 135.481 190.546C135.743 190.072 136.02 189.604 136.287 189.13C136.372 188.989 136.453 188.843 136.533 188.702L136.513 188.682ZM362.641 78.4869C362.571 78.3659 362.52 78.245 362.465 78.1341C362.465 78.0837 362.414 78.0434 362.394 77.993C362.285 78.0448 362.172 78.0903 362.057 78.1291C361.835 78.2147 361.609 78.2954 361.377 78.3609C361.145 78.4264 361.05 78.4617 360.873 78.502L360.425 78.6179L360.465 78.7086C360.652 78.6683 360.833 78.633 361.019 78.5826L361.07 79.2075C361.281 79.2075 361.478 79.1773 361.669 79.1773H361.941C362.334 79.1773 362.676 79.1773 362.948 79.1773C362.842 78.9505 362.732 78.7136 362.641 78.4869Z" fill="url(#paint1_linear)"/>
<path d="M252.599 152.504L249.577 153.84C249.577 153.84 229.88 230.407 229.88 236.595C229.88 242.784 271.646 277.217 271.646 277.217L278.163 233.204C278.163 233.204 268.806 132.272 252.599 152.504Z" fill="#E8F5FF"/>
<path d="M344.213 128.149L326.763 119.038C325.785 114.869 324.051 110.915 321.646 107.372C319.092 103.683 315.698 100.06 311.468 98.1704C300.776 93.373 356.693 68.1916 356.693 68.1916C357.574 71.2166 358.611 74.1938 359.8 77.1111C362.681 84.2266 367.461 93.4284 373.62 96.0488C384.09 100.509 344.213 128.149 344.213 128.149Z" fill="#FFB0B1"/>
<path opacity="0.1" d="M359.8 77.1111C357.411 85.5192 352.443 92.9638 345.596 98.3937C338.75 103.823 330.372 106.964 321.646 107.372C319.092 103.683 315.698 100.06 311.468 98.1704C300.776 93.373 356.693 68.1916 356.693 68.1916C357.574 71.2166 358.611 74.1938 359.8 77.1111Z" fill="black"/>
<path d="M361.372 64.3968C361.374 72.643 358.932 80.7046 354.355 87.562C349.777 94.4193 343.271 99.7644 335.657 102.921C328.044 106.078 319.666 106.905 311.583 105.297C303.5 103.689 296.075 99.7187 290.247 93.8881C284.419 88.0575 280.451 80.6286 278.843 72.5409C277.235 64.4532 278.06 56.07 281.214 48.4516C284.368 40.8332 289.709 34.3218 296.562 29.741C303.414 25.1602 311.471 22.7157 319.712 22.7167C325.19 22.6913 330.618 23.7521 335.683 25.8377C340.749 27.9233 345.351 30.9923 349.225 34.8677C353.098 38.743 356.166 43.3479 358.251 48.4162C360.336 53.4846 361.397 58.916 361.372 64.3968Z" fill="#FFB0B1"/>
<path d="M367.385 122.797L356.023 149.324L346.001 166.932H313.92L304.563 142.859L308.355 117.894H332.857L348.675 117.002L354.019 115.218L357.464 117.174L367.385 122.797Z" fill="#575A89"/>
<path opacity="0.1" d="M363.472 87.4366C363.472 87.4366 370.558 88.9484 364.212 94.1541C357.867 99.3597 335.974 115.914 335.974 115.914C335.974 115.914 343.664 122.767 342.073 130.795L367.551 116.584L372.084 93.8467C372.084 93.8467 372.593 87.0133 363.472 87.4366Z" fill="black"/>
<path opacity="0.1" d="M340.985 115.914L324.778 118.59C324.778 118.59 328.122 130.961 326.45 134.474C326.4 134.583 326.358 134.696 326.324 134.811L319.712 152.696L324.668 166.741L341.821 143.333L335.974 134.474C335.974 134.474 342.153 126.28 345.83 123.438C349.506 120.595 340.985 115.914 340.985 115.914Z" fill="black"/>
<path d="M340.985 115.223L324.778 117.894C324.778 117.894 328.122 130.266 326.45 133.778C326.4 133.887 326.358 134 326.324 134.116L319.712 152L324.668 166.045L341.821 142.622L335.974 133.763C335.974 133.763 342.153 125.569 345.83 122.727C349.506 119.885 340.985 115.223 340.985 115.223Z" fill="#DCE6F2"/>
<path d="M364.152 86.1012C364.152 86.1012 371.238 87.613 364.887 92.8186C358.536 98.0242 335.974 115.914 335.974 115.914C335.974 115.914 344.329 121.432 342.743 129.454L368.221 115.249L372.754 92.5112C372.754 92.5112 373.257 85.6779 364.152 86.1012Z" fill="#575A89"/>
<path opacity="0.1" d="M322.759 108.95C322.759 108.95 324.305 111.842 331.129 117.058C331.129 117.058 319.768 123.105 324.114 131.606L306.734 127.071L304.059 118.711L322.759 108.95Z" fill="black"/>
<path d="M322.089 108.284C322.089 108.284 323.635 111.177 330.459 116.393C330.459 116.393 319.097 122.41 323.444 130.936L306.069 126.401L303.394 118.046L322.089 108.284Z" fill="#575A89"/>
<path opacity="0.1" d="M367.385 122.798L356.023 149.325L346.021 166.932H313.92L304.563 142.859L308.35 117.894H315.164C315.053 123.72 317.179 130.563 317.043 133.108C316.811 137.291 323.278 159.857 323.278 159.857C323.278 159.857 336.81 137.956 342.153 136.006C345.513 134.781 352.629 124.592 357.459 117.174L367.385 122.798Z" fill="black"/>
<path d="M412.142 262.392L410.989 263.843C410.989 263.843 419.344 305.805 417.032 315.335C416.64 317.052 416.415 318.804 416.363 320.566V320.641C415.955 330.337 418.881 342.92 418.881 342.92C418.881 342.92 421.218 380.009 419.888 395.263H263.452C262.535 372.707 261.548 343.484 262.445 340.244C263.956 334.897 266.977 315.501 266.977 315.501L267.31 306.309C267.31 306.309 267.31 297.425 267.582 287.528C267.697 283.078 267.869 278.407 268.115 274.264C268.433 269.054 268.876 264.665 269.485 262.508C269.861 260.873 270.077 259.205 270.13 257.529C270.13 257.373 270.13 257.211 270.16 257.05C270.16 256.546 270.211 256.002 270.231 255.443C270.231 255.286 270.231 255.13 270.231 254.939C270.326 251.693 270.291 247.843 270.185 243.852C270.185 243.635 270.185 243.414 270.185 243.192C270.1 240.199 269.974 237.145 269.833 234.242C269.395 225.171 268.826 217.502 268.826 217.502L249.612 153.805L254.79 141.045L269.158 132.236L295.724 116.186C308.683 105.528 317.214 106.808 320.467 107.977C320.783 108.085 321.093 108.211 321.394 108.355C321.495 108.405 321.575 108.446 321.651 108.491C321.754 108.54 321.854 108.597 321.948 108.662C321.057 109.091 320.283 109.729 319.692 110.522C319.026 111.424 318.551 112.453 318.297 113.545C318.127 114.223 318.007 114.912 317.939 115.607C317.874 116.337 317.849 117.093 317.849 117.854C317.884 119.523 318.027 121.188 318.277 122.838C318.277 122.868 318.277 122.908 318.277 122.949C318.443 124.128 318.649 125.282 318.851 126.365C318.848 126.384 318.848 126.402 318.851 126.421C319.082 127.686 319.314 128.855 319.47 129.863C319.5 130.044 319.526 130.21 319.551 130.367C319.662 131.033 319.714 131.707 319.707 132.382C319.764 134.013 319.983 135.633 320.362 137.22C320.493 137.885 320.644 138.596 320.81 139.337C321.036 140.345 321.283 141.443 321.55 142.562C321.696 143.177 321.852 143.812 322.013 144.441C322.074 144.693 322.139 144.945 322.2 145.202L322.301 145.601C323.373 149.869 324.537 154.117 325.252 156.687C325.675 158.199 325.942 159.131 325.942 159.131C325.942 159.131 333.526 146.86 339.58 139.876C339.671 139.775 339.751 139.679 339.837 139.589C340.436 138.898 341.025 138.268 341.589 137.714C342.823 136.484 343.931 135.608 344.823 135.285C345.013 135.215 345.196 135.129 345.372 135.028C347.849 133.622 351.848 128.517 355.59 123.171C355.958 122.667 356.315 122.117 356.678 121.598C357.509 120.399 358.315 119.195 359.075 118.041C359.659 117.159 360.219 116.302 360.747 115.486C363.265 111.565 365.038 108.642 365.038 108.642L368.533 108.486L369.143 108.456H369.551L385.42 107.72C385.42 107.72 386.105 107.836 387.233 108.063C387.293 108.063 387.354 108.063 387.419 108.103C393.05 109.222 408.692 112.764 409.649 117.678C410.818 123.695 436.049 131.722 436.049 131.722C436.382 135.754 442.561 138.409 442.561 138.409C442.561 138.409 451.919 163.152 449.416 172.848C446.943 182.423 455.852 206.108 456.089 206.773L454.381 208.93L412.142 262.392Z" fill="#E8F5FF"/>
<path opacity="0.1" d="M363.467 85.678C363.467 85.678 378.913 81.2939 382.423 90.3193C385.934 99.3447 393.785 135.794 393.785 135.794C393.785 135.794 373.398 139.639 368.055 135.794C364.921 133.512 361.041 132.497 357.192 132.952L345.664 140.808L342.259 139.8C342.259 139.8 360.702 112.366 364.711 103.043C368.72 93.7208 370.074 89.5533 363.467 85.678Z" fill="black"/>
<path d="M362.797 83.6621C362.797 83.6621 378.253 79.2779 381.779 88.3034C385.304 97.3288 393.141 133.778 393.141 133.778C393.141 133.778 372.759 137.623 367.41 133.778C364.278 131.496 360.4 130.481 356.552 130.936L345.014 138.792L341.61 137.785C341.61 137.785 360.052 110.35 364.061 101.028C368.07 91.7049 369.405 87.5475 362.797 83.6621Z" fill="#E8F5FF"/>
<path opacity="0.1" d="M259.116 229.072C259.116 229.072 270.644 231.914 272.82 238.435C274.995 244.956 264.298 245.122 264.298 245.122C264.298 245.122 257.781 233.587 259.116 229.072Z" fill="black"/>
<path opacity="0.1" d="M302.055 277.217C302.055 277.217 273.822 335.064 280.339 340.582C286.856 346.1 302.055 277.217 302.055 277.217Z" fill="black"/>
<path opacity="0.1" d="M340.985 234.59C340.985 234.59 363.542 290.778 359.03 299.456C354.518 308.134 368.72 299.456 368.72 299.456L340.985 234.59Z" fill="black"/>
<path d="M372.396 290.093C372.396 290.093 296.208 293.772 318.433 317.512C340.658 341.252 386.266 318.52 386.266 318.52L372.396 290.093Z" fill="#FFB0B1"/>
<path opacity="0.1" d="M361.372 64.3968C361.379 69.8646 360.306 75.2798 358.214 80.3312C357.514 80.4118 356.814 80.4622 356.139 80.4924C355.132 78.2802 355.671 75.7252 355.691 73.2912C355.711 70.8572 354.815 67.9949 352.473 67.3398C347.804 66.0245 344.581 74.7577 339.978 73.1804C336.453 71.981 337.374 66.6293 335.345 63.5402C333.738 61.0961 330.52 60.4057 328.017 58.8737C322.694 55.6032 322.855 50.3724 320.382 45.4238C317.793 40.2384 312.324 41.7703 307.575 44.8292C303.969 47.1573 300.856 50.2767 296.999 52.1311C293.66 53.7437 289.908 54.3283 286.206 54.414C283.927 54.5023 281.647 54.2613 279.437 53.6984C282.037 43.919 288.102 35.4196 296.503 29.7852C304.904 24.1507 315.065 21.7658 325.094 23.0753C335.122 24.3848 344.332 29.2993 351.006 36.9022C357.68 44.5051 361.362 54.2775 361.367 64.3968H361.372Z" fill="black"/>
<path d="M307.59 43.4938C303.979 45.822 300.872 48.9363 297.014 50.8008C293.675 52.4084 289.923 52.993 286.221 53.0786C281.688 53.1794 276.808 52.3832 273.711 49.1076C270.866 46.084 270.186 41.4328 271.389 37.4668C272.593 33.5009 275.479 30.2102 278.868 27.8266C282.258 25.443 286.191 23.7951 288.437 20.3835C289.626 18.5795 290.2 16.4529 291.187 14.5329C294.345 8.38995 301.446 5.064 308.31 4.65078C315.174 4.23756 321.978 6.28352 328.516 8.50082C335.053 10.7181 341.64 13.1571 348.54 13.6157C351.612 13.8072 354.805 13.6157 357.655 14.7798C361.488 16.337 364.001 20.061 365.713 23.8506C367.632 28.1239 368.826 32.7903 368.624 37.4567C368.201 47.4195 361.624 57.1957 364.515 66.7402C365.28 69.2851 366.716 71.8954 365.95 74.4403C364.832 78.1543 360.043 79.0009 356.17 79.1773C355.162 76.965 355.701 74.405 355.721 71.9761C355.742 69.5471 354.845 66.6797 352.508 66.0246C347.835 64.7194 344.611 73.4375 340.018 71.8652C336.518 70.6608 337.425 65.3141 335.39 62.225C333.783 59.7759 330.56 59.0905 328.062 57.5586C322.739 54.2881 322.9 49.0572 320.427 44.1086C317.819 38.898 312.344 40.4299 307.59 43.4938Z" fill="#575A89"/>
<path d="M233.713 235.255L229.87 236.595C229.87 236.595 231.381 259.333 226.345 265.854C221.309 272.375 242.884 288.586 242.884 288.586C242.884 288.586 272.457 288.42 273.293 286.066C274.129 283.713 271.782 243.938 271.782 243.938C271.782 243.938 255.908 237.749 257.242 227.887C257.242 227.887 252.397 251.124 245.216 250.121C238.034 249.118 229.88 243.116 233.713 235.255Z" fill="#E8F5FF"/>
<path opacity="0.1" d="M246.53 257.156C252.129 257.156 256.668 253.002 256.668 247.878C256.668 242.755 252.129 238.601 246.53 238.601C240.931 238.601 236.392 242.755 236.392 247.878C236.392 253.002 240.931 257.156 246.53 257.156Z" fill="black"/>
<path d="M257.615 235.925C257.615 235.925 255.601 174.405 238.064 188.112C220.528 201.819 220.357 218.212 223.696 223.055C227.035 227.898 237.742 252.142 237.742 252.142C239.417 253.113 241.298 253.673 243.231 253.777C245.164 253.881 247.094 253.525 248.863 252.738C250.632 251.951 252.189 250.756 253.408 249.251C254.626 247.746 255.471 245.974 255.873 244.079L257.615 235.925Z" fill="#FFB0B1"/>
<path opacity="0.1" d="M367.007 80.0943C366.926 79.824 366.768 79.5828 366.554 79.3989C365.688 78.6077 363.824 78.3306 361.014 78.5725L361.13 79.9028C364.877 79.5803 365.617 80.3262 365.713 80.4521V80.5781L365.829 80.7444C366.296 81.3727 366.627 82.0917 366.8 82.8553C366.974 83.6189 366.986 84.4104 366.836 85.179C366.015 89.2861 360.974 92.5566 360.924 92.5919L360.803 92.6624L360.727 92.7783C358.552 96.0085 346.248 105.125 343.03 107.483L342.748 107.161C341.307 108.41 328.646 119.502 327.961 123.75C327.518 126.416 324.517 127.449 323.429 127.736C322.28 126.864 318.554 123.896 316.615 120.57C314.797 117.441 322.114 111.333 322.759 108.949L321.752 107.916C321.646 108.299 312.248 117.088 314.862 121.578C316.957 125.181 320.785 128.265 322.124 129.283C321.696 133.174 319.032 156.017 314.938 161.429C309.851 168.156 305.575 202.061 306.049 213.898C306.467 224.415 303.722 244.28 294.556 252.812C292.969 254.354 291.055 255.517 288.956 256.215C286.857 256.913 284.627 257.128 282.434 256.843H282.323H282.212C282.081 256.843 268.785 258.204 257.615 248.781C248.474 241.086 243.297 228.528 242.219 211.444H241.998L241.907 206.47C244.385 206.083 246.617 204.75 248.134 202.751C249.651 200.752 250.334 198.242 250.04 195.75C249.746 193.257 248.498 190.975 246.558 189.384C244.619 187.793 242.138 187.016 239.637 187.216C237.137 187.417 234.812 188.579 233.15 190.459C231.488 192.339 230.619 194.791 230.726 197.298C230.833 199.806 231.906 202.175 233.722 203.907C235.537 205.639 237.953 206.599 240.461 206.586H240.572L240.663 211.53L240.22 211.56C241.328 229.198 246.767 242.245 256.336 250.302C263.609 256.333 272.899 259.375 282.328 258.814C282.997 258.887 283.669 258.924 284.342 258.925C288.664 258.947 292.823 257.274 295.926 254.263C305.58 245.268 308.516 224.672 308.058 213.798C307.554 201.255 312.042 168.57 316.544 162.618C320.956 156.778 323.63 134.02 324.098 129.611C325.695 129.162 329.306 127.746 329.92 124.067C330.364 121.407 338.819 113.208 344.022 108.667L343.866 108.486C346.666 106.44 355.374 99.9896 359.69 95.8473C361.029 94.5622 362.359 93.2772 363.749 92.0526C365.421 90.5711 367.546 88.2177 368.105 85.436C368.296 84.5178 368.297 83.5703 368.108 82.6517C367.919 81.7331 367.545 80.8628 367.007 80.0943Z" fill="black"/>
<path d="M321.953 128.966C321.742 128.819 316.726 125.226 314.213 120.903C311.604 116.413 321.001 107.629 321.102 107.246L322.109 108.279C321.47 110.658 314.152 116.77 315.97 119.895C318.262 123.841 323.086 127.293 323.137 127.328L321.953 128.966Z" fill="#353146"/>
<path d="M342.375 108.461L341.59 107.377C341.751 107.261 357.57 95.8121 360.063 92.1082L360.143 91.9973L360.259 91.9218C360.309 91.8865 365.351 88.621 366.172 84.5089C366.323 83.7412 366.312 82.9502 366.138 82.1871C365.964 81.4241 365.633 80.706 365.164 80.0794L365.048 79.9081V79.7871C364.948 79.6561 364.207 78.9153 360.46 79.2378L360.345 77.9024C363.16 77.6605 365.018 77.9377 365.884 78.7289C366.1 78.9145 366.259 79.1573 366.343 79.4293C366.887 80.1955 367.269 81.0652 367.465 81.9848C367.661 82.9043 367.666 83.8543 367.481 84.776C366.922 87.5628 364.802 89.9161 363.125 91.3926C361.74 92.6172 360.405 93.9123 359.07 95.1872C354.009 100.04 342.929 108.063 342.375 108.461Z" fill="#E8F5FF"/>
<path d="M241.257 204.716L239.923 204.74L240.071 212.857L241.406 212.833L241.257 204.716Z" fill="#E8F5FF"/>
<path d="M239.812 205.946C245.194 205.946 249.557 201.581 249.557 196.195C249.557 190.81 245.194 186.444 239.812 186.444C234.43 186.444 230.067 190.81 230.067 196.195C230.067 201.581 234.43 205.946 239.812 205.946Z" fill="#587EEC"/>
<path d="M239.812 204.293C244.282 204.293 247.905 200.668 247.905 196.195C247.905 191.723 244.282 188.097 239.812 188.097C235.342 188.097 231.719 191.723 231.719 196.195C231.719 200.668 235.342 204.293 239.812 204.293Z" fill="#E8F5FF"/>
<path d="M283.708 258.275C283.035 258.276 282.362 258.24 281.693 258.169C272.265 258.724 262.977 255.683 255.701 249.657C246.132 241.594 240.703 228.563 239.585 210.91L241.6 210.784C242.677 227.867 247.855 240.43 257.001 248.12C268.171 257.519 281.462 256.183 281.593 256.183H281.703H281.814C284.008 256.466 286.238 256.251 288.338 255.553C290.437 254.855 292.353 253.692 293.941 252.152C303.102 243.62 305.847 223.755 305.429 213.238C304.926 201.391 309.201 167.486 314.293 160.764C318.75 154.873 321.515 128.321 321.545 128.053L321.621 127.298L322.366 127.167C322.411 127.167 326.763 126.34 327.307 123.085C328.012 118.842 340.653 107.75 342.088 106.495L343.402 108.007C338.18 112.542 329.724 120.746 329.301 123.412C328.687 127.101 325.076 128.512 323.484 128.956C322.98 133.37 320.326 156.123 315.93 161.963C311.427 167.915 306.94 200.6 307.444 213.142C307.877 224.017 304.971 244.618 295.316 253.608C292.208 256.626 288.039 258.302 283.708 258.275Z" fill="#353146"/>
<g opacity="0.1">
<path opacity="0.1" d="M365.663 52.484C366.489 49.4301 367.486 46.3562 368.181 43.262C367.35 46.3713 366.348 49.4301 365.663 52.484Z" fill="black"/>
<path opacity="0.1" d="M357.237 76.4812C356.23 74.269 356.769 71.709 356.789 69.2801C356.809 66.8511 355.913 64.0089 353.576 63.3286C348.902 62.0234 345.679 70.7465 341.086 69.1692C337.561 67.9648 338.492 62.6181 336.458 59.529C334.851 57.0799 331.633 56.3945 329.135 54.8626C323.806 51.5921 323.968 46.3612 321.5 41.4126C318.906 36.2221 313.442 37.7541 308.688 40.818C305.077 43.1462 301.969 46.2655 298.111 48.125C294.772 49.7325 291.02 50.3171 287.319 50.4028C282.811 50.5086 277.906 49.7073 274.809 46.4318C272.422 43.9121 271.56 40.2183 272.054 36.7563C271.968 36.9931 271.893 37.23 271.817 37.4668C270.608 41.4328 271.314 46.0942 274.139 49.1077C277.236 52.3832 282.142 53.1794 286.649 53.0787C290.356 52.993 294.103 52.4084 297.447 50.8009C301.315 48.9363 304.422 45.822 308.023 43.4939C312.777 40.43 318.246 38.898 320.835 44.0885C323.303 49.0371 323.147 54.2679 328.47 57.5385C330.988 59.0502 334.186 59.7557 335.798 62.2049C337.812 65.304 336.921 70.6407 340.426 71.8451C345.014 73.4173 348.237 64.6993 352.911 66.0045C355.248 66.6596 356.149 69.532 356.124 71.9559C356.099 74.3798 355.575 76.9449 356.572 79.1571C360.445 78.9807 365.235 78.1493 366.358 74.4202C366.512 73.885 366.584 73.3292 366.569 72.7723C364.933 75.5994 360.722 76.325 357.237 76.4812Z" fill="black"/>
</g>
<path opacity="0.1" d="M448.257 200.65L454.105 206.838C454.105 206.838 458.783 240.939 461.12 244.129C463.457 247.319 468.977 260.008 463.794 269.538C463.794 269.538 462.122 274.723 463.124 276.895C464.127 279.067 455.61 289.937 455.61 289.937C455.61 289.937 444.415 299.965 442.073 301.472C439.731 302.978 427.372 315.012 423.197 315.179C419.022 315.345 417.657 320.53 417.657 320.53L394.098 321.367C394.098 321.367 381.084 320.687 378.254 322.526C378.254 322.526 379.764 302.631 365.225 289.589L383.768 282.902C383.768 282.902 390.789 279.878 392.959 276.719C394.325 274.781 396.262 273.321 398.499 272.541C398.499 272.541 403.677 268.862 403.843 266.857C404.009 264.851 410.173 262.392 410.173 262.392L406.683 232.584L408.521 183.098C408.521 183.098 414.369 141.635 426.733 143.978C439.097 146.321 448.257 200.65 448.257 200.65Z" fill="black"/>
<path d="M450.272 200.65L456.119 206.838C456.119 206.838 460.798 240.939 463.134 244.129C465.471 247.319 470.991 260.008 465.809 269.538C465.809 269.538 464.142 274.723 465.144 276.895C466.146 279.067 457.625 289.937 457.625 289.937C457.625 289.937 446.429 299.965 444.087 301.472C441.745 302.978 429.386 315.012 425.211 315.179C421.036 315.345 419.672 320.53 419.672 320.53L396.112 321.367C396.112 321.367 383.088 320.687 380.268 322.526C380.268 322.526 381.779 302.631 367.239 289.589L385.783 282.902C385.783 282.902 392.803 279.878 394.974 276.719C396.339 274.781 398.276 273.321 400.514 272.541C400.514 272.541 405.691 268.862 405.857 266.857C406.023 264.851 412.188 262.392 412.188 262.392L408.698 232.584L410.536 183.098C410.536 183.098 416.383 141.635 428.747 143.978C441.111 146.321 450.272 200.65 450.272 200.65Z" fill="#E8F5FF"/>
<path opacity="0.1" d="M428.535 250.64C428.535 250.64 445.744 246.105 450.257 251.648C454.769 257.191 428.535 250.64 428.535 250.64Z" fill="black"/>
<path opacity="0.1" d="M424.527 258.244C430.374 262.341 448.419 262.508 448.419 262.508L424.527 258.244Z" fill="black"/>
<path opacity="0.1" d="M433.38 278.724C433.884 278.891 445.785 291.6 450.781 287.755C455.776 283.91 433.38 278.724 433.38 278.724Z" fill="black"/>
<path opacity="0.1" d="M273.107 172.062C273.107 172.062 276.602 196.14 274.879 205.946C273.157 215.753 279.442 227.903 279.442 227.903L273.107 172.062Z" fill="black"/>
<path d="M195.73 181.853C191.701 185.013 188.759 192.491 186.629 200.711C182.912 215.047 181.699 231.672 181.699 231.672C181.699 231.672 149.618 224.315 151.954 220.974C153.425 218.872 151.451 203.039 149.804 191.559C148.822 184.776 147.946 179.51 147.946 179.51C147.946 179.51 206.759 173.156 195.73 181.853Z" fill="#FFB0B1"/>
<path opacity="0.1" d="M195.73 181.183C191.701 184.348 188.759 191.821 186.629 200.04C180.237 201.982 173.439 202.157 166.956 200.547C160.473 198.937 154.546 195.601 149.804 190.894C148.822 184.106 147.946 178.84 147.946 178.84C147.946 178.84 206.759 172.49 195.73 181.183Z" fill="black"/>
<path d="M212.974 163.173C212.977 171.938 209.881 180.421 204.234 187.122C198.588 193.823 190.754 198.308 182.119 199.785C173.485 201.262 164.607 199.635 157.056 195.192C149.505 190.749 143.769 183.776 140.862 175.508C137.955 167.24 138.065 158.209 141.173 150.014C144.281 141.819 150.185 134.989 157.842 130.731C165.499 126.474 174.415 125.064 183.01 126.752C191.606 128.439 199.328 133.115 204.81 139.951C210.092 146.537 212.972 154.728 212.974 163.173Z" fill="#FFB0B1"/>
<path opacity="0.1" d="M242.224 395.263H231.648L230.757 376.573L229.825 357.227C229.825 357.227 232.227 356.869 236.055 356.335L237.601 356.128H237.727C238.563 360.054 239.389 364.085 240.184 368.112C241.509 375.26 242.198 382.511 242.244 389.781C242.244 390.285 242.244 390.789 242.244 391.262C242.274 392.608 242.244 393.953 242.224 395.263Z" fill="black"/>
<path d="M240.195 395.263H107.56C108.134 393.958 108.517 393.167 108.517 393.167C108.517 393.167 119.128 346.715 124.522 327.061C124.524 327.045 124.524 327.028 124.522 327.011C125.196 324.341 126.009 321.709 126.959 319.124C127.021 318.949 127.1 318.78 127.196 318.62C129.865 314.277 133.209 309.595 128.531 302.908C123.852 296.221 125.509 266.796 125.509 266.796C125.509 266.796 131.19 241.715 137.203 228.341C138.116 226.269 139.411 224.389 141.021 222.798C141.544 222.285 142.103 221.811 142.693 221.377C143.141 221.039 143.609 220.728 144.093 220.444L144.188 220.384C146.715 218.951 149.52 218.079 152.413 217.829C154.468 217.614 156.542 217.672 158.582 218C168.332 219.432 176.138 221.825 182.343 224.551C199.159 231.944 204.251 241.851 204.352 242.058L204.392 242.144C205.067 243.721 214.938 266.781 218.493 277.54C219.415 280.342 219.919 282.312 219.717 282.851C218.71 285.522 227.403 318.958 227.403 318.958C227.403 318.958 231.432 335.084 235.461 353.986C235.637 354.773 235.803 355.559 235.964 356.355C236.684 359.787 237.399 363.284 238.089 366.776C239.426 373.973 240.116 381.276 240.149 388.596C240.223 390.878 240.238 393.1 240.195 395.263Z" fill="#EB5569"/>
<path opacity="0.1" d="M151.622 206.329C151.622 206.329 142.471 202.802 142.582 208.154C142.693 213.505 144.813 216.065 144.143 216.846C143.473 217.628 144.476 222.309 144.476 222.309C144.476 222.309 156.84 222.309 162.52 224.869C168.201 227.429 189.142 232.559 191.816 234.121C194.491 235.683 204.407 242.688 204.407 242.688L205.298 229.425C205.298 229.425 195.05 220.953 178.234 216.61C161.418 212.266 151.622 206.329 151.622 206.329Z" fill="black"/>
<path d="M151.622 205.659C151.622 205.659 142.471 202.132 142.582 207.483C142.693 212.835 144.813 215.395 144.143 216.176C143.473 216.957 144.476 221.639 144.476 221.639C144.476 221.639 156.84 221.639 162.52 224.204C168.201 226.769 189.142 231.894 191.816 233.451C194.491 235.008 204.407 242.018 204.407 242.018L205.308 228.795C205.308 228.795 195.06 220.324 178.244 215.98C161.428 211.636 151.622 205.659 151.622 205.659Z" fill="#EB5569"/>
<path opacity="0.1" d="M179.246 237.578C179.246 237.578 196.732 256.521 195.84 261.767C194.949 267.013 179.246 237.578 179.246 237.578Z" fill="black"/>
<path opacity="0.1" d="M150.841 306.007C150.841 306.007 138.024 317.824 134.247 318.495C130.47 319.165 137.143 321.392 141.484 319.613C145.825 317.834 155.082 313.153 155.082 313.153L150.841 306.007Z" fill="black"/>
<path d="M245.402 395.264H215.512C211.332 391.635 207.378 388.274 204.86 386.253C200.831 383.018 197.925 378.256 196.072 374.426C195.654 373.554 195.291 372.738 194.984 371.997C194.434 370.721 193.95 369.417 193.534 368.092L215.668 354.939C216.891 355.98 218.041 357.105 219.108 358.305L219.375 358.613C220.603 360.064 221.686 361.712 221.782 363.062C221.893 364.635 226.264 370.717 230.731 376.558C235.264 382.499 239.907 388.178 240.215 388.561C240.215 388.561 240.98 389.604 242.229 391.207C243.11 392.366 244.198 393.757 245.402 395.264Z" fill="#FFB0B1"/>
<path opacity="0.1" d="M204.81 139.951C203.747 142.35 202.795 144.84 202.654 147.51C202.257 155.221 202.901 172.46 194.37 176.33C190.144 178.235 185.622 174.052 180.988 173.952C177.654 173.881 174.597 175.998 172.563 178.643C170.528 181.289 169.264 184.428 167.788 187.422C166.445 190.139 164.898 192.75 163.16 195.233C162.641 195.993 162.068 196.715 161.448 197.395C156.246 195.198 151.613 191.843 147.904 187.583C144.194 183.324 141.505 178.274 140.041 172.817C138.577 167.361 138.378 161.642 139.458 156.096C140.538 150.551 142.868 145.325 146.272 140.817C149.676 136.31 154.063 132.639 159.1 130.085C164.136 127.531 169.689 126.161 175.334 126.079C180.98 125.998 186.57 127.207 191.678 129.614C196.786 132.022 201.277 135.564 204.81 139.972V139.951Z" fill="black"/>
<path d="M201.985 146.15C201.582 153.86 202.231 171.099 193.695 174.965C189.469 176.869 184.947 172.692 180.314 172.591C176.98 172.515 173.928 174.637 171.888 177.278C169.848 179.918 168.594 183.063 167.114 186.061C165.77 188.778 164.223 191.389 162.485 193.872C161.448 195.344 160.299 196.82 158.703 197.646C155.923 199.098 152.554 198.281 149.572 197.349C145.704 196.13 141.894 194.756 138.14 193.227C138.226 192.66 138.27 192.087 138.271 191.514C138.16 191.725 138.039 191.922 137.918 192.133L137.682 192.547C137.254 193.303 136.836 194.058 136.453 194.835C136.307 195.132 136.166 195.439 136.04 195.747C135.533 196.891 135.215 198.109 135.098 199.355C134.841 202.716 136.498 205.906 137.969 208.93C143.624 220.626 147.12 234.303 142.864 246.573C141.021 251.91 137.828 256.652 135.496 261.807C131.42 270.938 130.22 281.094 132.056 290.924C133.22 297.032 135.551 303.079 134.977 309.273C133.97 319.931 124.784 327.863 115.583 333.315C110.612 336.248 104.528 338.858 99.25 336.54C102.614 332.61 103.48 327.172 104.206 322.042C106.19 308.05 108.179 294.05 110.174 280.044C110.969 274.471 111.763 268.897 112.556 263.324C114.036 252.852 115.537 242.265 114.611 231.727C113.936 223.962 112.032 215.718 115.396 208.688C117.174 204.964 120.342 201.88 121.329 197.868C122.14 194.608 121.384 191.141 121.918 187.82C122.21 186.309 122.705 184.844 123.389 183.466C124.259 181.595 125.396 179.861 126.763 178.316C125.413 177.923 124.154 177.383 123.389 176.255C125.554 174.844 125.882 171.664 124.9 169.275C123.918 166.886 121.953 165.067 120.186 163.183C118.418 161.298 116.716 159.101 116.494 156.531C116.066 151.637 120.951 147.848 121.812 143.02C122.684 138.107 119.239 133.33 119.516 128.356C119.838 122.344 125.358 117.975 130.807 115.44C139.03 111.631 148.114 110.066 157.137 110.905C164.48 111.6 171.586 113.873 178.908 114.755C183.325 115.259 187.802 115.309 192.189 116.085C196.576 116.861 200.972 118.499 204.059 121.719C212.198 130.21 202.448 137.2 201.985 146.15Z" fill="#575A89"/>
<path opacity="0.1" d="M195.175 374.431C192.607 373.317 187.933 373.982 179.911 371.538C171.888 369.094 170.342 358.048 170.342 358.048V358.013C170.246 357.761 169.501 356.118 164.454 350.363C158.879 344.009 146.827 311.913 146.827 311.913C146.827 311.913 136.14 300.428 136.478 296.195C136.815 291.962 134.579 280.7 134.801 268.101C135.022 255.503 158.859 247.148 158.859 247.148C204.754 239.009 193.947 291.952 192.723 295.964C191.499 299.975 197.85 310.81 197.85 310.81C196.953 315.526 201.526 322.828 201.526 322.828C201.526 322.828 202.634 329.289 202.861 331.743C202.873 331.856 202.899 331.968 202.936 332.075C203.672 334.388 209.665 336.485 212.102 337.76C214.666 339.1 222.91 350.802 222.91 350.802C224.688 359.394 197.734 375.56 195.175 374.431Z" fill="black"/>
<path d="M196.51 372.415C193.947 371.296 189.268 371.967 181.25 369.518C173.233 367.068 171.681 356.032 171.681 356.032V355.997C171.591 355.74 170.84 354.102 165.794 348.347C160.219 341.993 148.167 309.892 148.167 309.892C148.167 309.892 137.48 298.413 137.813 294.18C138.145 289.947 135.919 278.684 136.141 266.096C136.362 253.507 160.184 245.157 160.184 245.157C206.079 237.019 195.271 289.962 194.047 293.973C192.824 297.984 199.174 308.819 199.174 308.819C198.278 313.536 202.851 320.838 202.851 320.838C202.851 320.838 203.959 327.298 204.19 329.752C204.199 329.866 204.223 329.978 204.261 330.085C204.996 332.398 210.989 334.494 213.432 335.769C215.99 337.105 224.24 348.811 224.24 348.811C226.028 357.388 199.074 373.554 196.51 372.415Z" fill="#EB5569"/>
<path opacity="0.1" d="M161.09 272.798C161.09 272.798 181.14 293.963 186.372 293.963C191.605 293.963 161.09 272.798 161.09 272.798Z" fill="black"/>
<path d="M196.51 372.415C193.947 371.296 189.268 371.967 181.25 369.518C173.232 367.068 171.681 356.032 171.681 356.032V355.997C176.995 352.47 190.451 342.507 195.755 338.863C199.486 336.309 202.533 332.554 204.316 330.065C205.052 332.378 211.045 334.474 213.487 335.749C216.046 337.085 224.295 348.791 224.295 348.791C226.028 357.388 199.073 373.554 196.51 372.415Z" fill="#FF748E"/>
<g opacity="0.1">
<path opacity="0.1" d="M123.419 176.31C123.444 176.35 123.479 176.386 123.51 176.426C123.661 176.235 123.817 176.043 123.978 175.862C123.806 176.029 123.619 176.179 123.419 176.31Z" fill="black"/>
<path opacity="0.1" d="M135.103 199.41C135.315 196.614 136.81 194.149 138.21 191.69C137.294 191.337 136.377 190.98 135.471 190.607C135.557 190.041 135.601 189.47 135.602 188.898C134.187 191.418 132.645 193.897 132.429 196.735C132.172 200.101 133.829 203.286 135.3 206.309C140.96 218 144.45 231.677 140.195 243.953C138.346 249.285 135.159 254.032 132.827 259.187C128.752 268.316 127.554 278.471 129.392 288.299C130.545 294.412 132.882 300.454 132.308 306.647C131.301 317.305 122.12 325.237 112.913 330.685C109.151 332.912 104.755 334.953 100.549 334.807C100.16 335.434 99.7259 336.032 99.2501 336.596C104.533 338.929 110.612 336.304 115.583 333.361C124.794 327.918 133.995 320.006 135.002 309.328C135.577 303.135 133.24 297.093 132.081 290.98C130.243 281.153 131.437 270.999 135.506 261.868C137.823 256.718 141.046 251.965 142.874 246.634C147.13 234.358 143.635 220.681 137.979 208.99C136.513 205.946 134.846 202.777 135.103 199.41Z" fill="black"/>
<path opacity="0.1" d="M204.049 121.78C203.554 121.271 203.022 120.799 202.458 120.369C208.562 128.29 199.748 135.023 199.31 143.549C198.917 151.26 199.562 168.504 191.026 172.364C186.805 174.274 182.278 170.091 177.649 169.991C174.31 169.92 171.258 172.042 169.219 174.682C167.179 177.323 165.925 180.467 164.449 183.461C163.103 186.177 161.554 188.788 159.816 191.272C158.809 192.748 157.63 194.22 156.029 195.051C153.259 196.497 149.889 195.686 146.903 194.749C143.999 193.835 141.121 192.827 138.271 191.725C138.265 192.25 138.221 192.774 138.14 193.292C141.897 194.824 145.709 196.198 149.577 197.415C152.559 198.352 155.928 199.163 158.703 197.717C160.299 196.885 161.458 195.409 162.49 193.932C164.23 191.452 165.777 188.843 167.119 186.127C168.599 183.133 169.848 179.984 171.893 177.343C173.938 174.702 176.985 172.586 180.319 172.656C184.952 172.757 189.479 176.94 193.7 175.03C202.236 171.17 201.587 153.925 201.984 146.215C202.448 137.25 212.198 130.266 204.049 121.78Z" fill="black"/>
</g>
<path opacity="0.1" d="M137.687 192.552C137.259 193.308 136.841 194.064 136.458 194.84C136.312 195.137 136.171 195.444 136.045 195.752C133.406 193.091 126.98 186.767 123.394 184.806C124.266 182.937 125.402 181.202 126.768 179.656C126.768 179.656 135.315 184.177 137.687 192.552Z" fill="black"/>
<path d="M137.923 192.139C135.944 183.174 126.768 178.321 126.768 178.321C125.401 179.866 124.264 181.6 123.394 183.471C127.176 185.542 134.146 192.486 136.458 194.84L137.923 192.139Z" fill="#EB5569"/>
<defs>
<linearGradient id="paint0_linear" x1="367.662" y1="48.9262" x2="367.662" y2="39.664" gradientUnits="userSpaceOnUse">
<stop stop-color="#808080" stop-opacity="0.25"/>
<stop offset="0.54" stop-color="#808080" stop-opacity="0.12"/>
<stop offset="1" stop-color="#808080" stop-opacity="0.1"/>
</linearGradient>
<linearGradient id="paint1_linear" x1="231049" y1="331842" x2="231049" y2="23137.5" gradientUnits="userSpaceOnUse">
<stop stop-color="#808080" stop-opacity="0.25"/>
<stop offset="0.54" stop-color="#808080" stop-opacity="0.12"/>
<stop offset="1" stop-color="#808080" stop-opacity="0.1"/>
</linearGradient>
</defs>
</svg>
