<svg xmlns="http://www.w3.org/2000/svg" xmlns:xlink="http://www.w3.org/1999/xlink" width="1680" height="1440" xmlns:v="https://vecta.io/nano"><defs><clipPath id="A"><path d="M0 1080h1260V0H0z"/></clipPath><path id="B" d="M524.343 601.653c-1.431 1.073-3.101 1.61-5.008 1.61s-3.577-.537-5.008-1.61-2.146-2.563-2.146-4.471h14.308c0 1.908-.715 3.398-2.146 4.471m-22.893-8.048c0 5.246 1.669 9.538 5.008 12.877s7.631 5.008 12.877 5.008 9.419-1.67 12.52-5.008 4.65-7.631 4.65-12.877v-3.577h-24.682c.238-1.908 1.073-3.398 2.504-4.471s3.1-1.61 5.008-1.61c3.339 0 6.319.954 8.943 2.862l5.723-5.723c-2.624-3.578-7.512-5.366-14.666-5.366-5.246 0-9.539 1.669-12.877 5.008s-5.008 7.631-5.008 12.877"/><path id="C" d="M881.327 610.488c1.86-.811 3.601-2.016 5.223-3.613l-5.58-6.295c-1.622 1.931-3.649 2.897-6.081 2.897-2.41 0-4.019-.447-4.83-1.342s-.81-1.705 0-2.432 2.42-1.329 4.83-1.806c3.552-.334 6.461-1.347 8.727-3.04s3.398-4.639 3.398-8.836c0-3.386-1.335-6.009-4.005-7.869s-5.784-2.79-9.337-2.79c-3.386 0-6.206.482-8.459 1.448s-4.192 2.26-5.813 3.882l5.544 6.259c1.621-1.931 4.137-3.052 7.548-3.362 2.742 0 4.513.447 5.312 1.341s.918 1.789.357 2.683-2.45 1.496-5.669 1.806c-2.91.334-5.575 1.228-7.995 2.683s-3.631 4.197-3.631 8.227c0 3.696 1.378 6.516 4.132 8.46s5.586 2.915 8.495 2.915c3.362 0 5.974-.405 7.834-1.216"/></defs><g clip-path="url(#A)" transform="matrix(1.333333 0 0 -1.333333 0 1440)"><g fill="#e21c2b"><path d="M60.693 588.349s159.836 12.21 199.367-167.771l.084-9.862H156.931l-.084 68.381s63.046-9.141 98.024-53.038c0 0-38.514 83.662-194.178 74.226zm267.79-69.134s-143.965 7.256-179.894 137.103v12.967h111.569v-55.506s-74.313 6.208-107.936 52.116c0 0 28.597-79.753 175.968-66.205z"/></g><g fill="#d9dcde"><path d="M73.234 483.574v16.586s124.739 15.311 181.637-74.101c0 0-47.074 68.353-181.637 57.515m239.709 129.661l.084-13.545s-118.2-14.791-160.805 66.204c0 0 44.684-63.927 160.721-52.659"/></g><path d="M243.237 661.194s-63.133-49.442-65.649-86.603c0 0-2.89-18.722 7.966-30.637 0 0 64.732-49.551-8.647-125.231 0 0 74.771 39.452 64.173 102.219 0 0-2.756 14.974-8.504 20.603 0 0-51.934 45.979 10.661 119.649" fill="#02923f"/><g fill="#415d9c"><path d="M980.483 465.293c-.687-1.571-1.726-2.898-3.12-3.983-1.505-1.151-3.075-1.726-4.713-1.726-2.899 0-5.389.996-7.468 2.987s-3.12 4.437-3.12 7.335c0 2.988 1.063 5.842 3.187 8.564 2.256 2.921 4.845 4.381 7.766 4.381.487 0 1.173-.139 2.058-.415s1.549-.414 1.991-.414c.155 0 .382.06.681.181s.514.184.647.184c.796 0 1.195-1.727 1.195-5.178 0-.133-.083-.288-.25-.465s-.314-.265-.447-.265c-.398 0-.763.409-1.095 1.227-.465 1.084-.886 1.825-1.262 2.224-.775.818-1.869 1.228-3.285 1.228-2.302 0-4.282-1.239-5.942-3.717-1.482-2.212-2.223-4.526-2.223-6.937 0-2.39.641-4.437 1.924-6.141 1.416-1.881 3.275-2.821 5.577-2.821 2.832 0 5.055 1.428 6.67 4.282zm10.753 3.982c-.53.643-1.261.963-2.19.963-1.217 0-2.174-.448-2.871-1.344s-1.045-1.953-1.045-3.17c0-1.195.21-2.169.629-2.921.554-.952 1.395-1.427 2.524-1.427 1.039 0 2.024.519 2.953 1.56l-.1 3.153.1 3.186m6.572-5.372c-.244-2.791-1.372-4.187-3.385-4.187-1.084 0-1.937.465-2.556 1.395-.995-1.084-2.412-1.627-4.248-1.627-1.593 0-2.904.51-3.934 1.526s-1.543 2.313-1.543 3.884c0 1.926.603 3.569 1.809 4.929s2.771 2.041 4.696 2.041c.996 0 1.992-.243 2.987-.73.289.376.708.565 1.262.565.243 0 .619-.056 1.128-.166l-.099-4.566v-3.043c.11-1.478.443-2.216.996-2.216.309 0 .664.404 1.062 1.214l.83 1.673.663-.197zm13.841 5.207c0-.687-.222-1.257-.664-1.71s-.996-.681-1.66-.681c-.399 0-.829.2-1.294.598l.531.93c.243.442.364.752.364.929 0 .132-.077.288-.231.464s-.288.266-.399.266c-1.217 0-2.223-.642-3.02-1.925a6.84 6.84 0 0 1-1.029-3.618c0-2.08.543-3.12 1.627-3.12.486 0 .94.354 1.36 1.062l.797 1.694h1.128c0-1.218-.331-2.258-.995-3.12a3.43 3.43 0 0 0-2.855-1.428c-2.567 0-3.849 2.213-3.849 6.638v1.792 1.594c-.574.043-.957.144-1.147.298-.255.199-.393.575-.414 1.129l2.755.299c.42 0 .851-.033 1.295-.1.309-.398.453-.985.43-1.76 1.505 1.661 2.932 2.491 4.283 2.491.729 0 1.41-.272 2.041-.814s.946-1.179.946-1.908m6.406 8.033a1.78 1.78 0 0 0-.498-1.262c-.332-.354-.741-.531-1.229-.531-.508 0-.945.193-1.31.581a1.9 1.9 0 0 0-.548 1.344c0 .465.177.868.531 1.212s.752.514 1.195.514c.486 0 .919-.188 1.295-.564s.564-.808.564-1.294m4.182-13.311c0-1.127-.332-2.101-.995-2.919-.709-.885-1.616-1.329-2.722-1.329-2.302 0-3.452 2.091-3.452 6.274l.066 2.257.033 1.858c-.62 0-1.029.066-1.227.199-.267.177-.41.553-.433 1.129 1.262.354 2.456.531 3.585.531.642 0 .963-.962.963-2.887l-.066-2.175-.067-2.174c0-2.146.365-3.22 1.096-3.22.53 0 1.061.598 1.593 1.793l1.161 2.556c.309-.93.465-1.56.465-1.893m18.885 1.594c0-1.372-.222-2.622-.664-3.751-.62-1.526-1.526-2.29-2.722-2.29-1.505 0-2.445 1.004-2.821 3.011-.133.617-.199 2.162-.199 4.633 0 1.985-.399 2.977-1.196 2.977-.973 0-2.012-.75-3.119-2.249-1.085-1.412-1.626-2.626-1.626-3.64v-2.912a1.21 1.21 0 0 0 .78-.281c.232-.187.348-.414.348-.679l-.199-.727c-2.257 0-3.253-.011-2.987-.033-1.505.088-2.257.387-2.257.896 0 .221.21.409.631.564l.829.365v8.364c-1.194.044-1.792.354-1.792.93 0 .708.824 1.062 2.473 1.062.768 0 1.537-.111 2.306-.332l-.132-3.452c.705 1.217 1.344 2.102 1.917 2.655.861.841 1.83 1.261 2.91 1.261 1.301 0 2.292-.414 2.976-1.244s1.025-1.908 1.025-3.236c0-.465-.055-1.151-.166-2.058l-.166-2.058c0-1.217.354-1.826 1.063-1.826.442 0 .996.576 1.659 1.727l1.129 2.323m10.886 3.423c0 .331-.31.606-.93.826-.508.198-.951.298-1.327.298-1.306 0-2.302-.474-2.987-1.422-.575-.815-.862-1.907-.862-3.273 0-1.124.277-2.05.834-2.778.623-.815 1.479-1.222 2.569-1.222.534 0 1.118.18 1.752.545s.951.798.951 1.305zm4.05 1.522c-.399-.464-.886-.719-1.461-.763l.133-4.016.132-4.082c0-2.523-.321-4.503-.962-5.941-.775-1.793-2.168-3.199-4.182-4.216-1.063-.509-1.881-.763-2.456-.763-.133 0-.498.044-1.096.133v1.062c4.382 1.283 6.417 4.071 6.108 8.364v.531c-1.067-.797-2.354-1.195-3.865-1.195-1.598 0-2.892.531-3.88 1.593s-1.483 2.401-1.483 4.016c0 1.638.543 3.12 1.627 4.447 1.15 1.439 2.533 2.159 4.148 2.159 1.284 0 2.402-.245 3.353-.731.376.354.885.531 1.527.531 1.548 0 2.334-.377 2.357-1.129m21.54 10.156c0-1.638-.995-2.456-2.987-2.456 0 .509.11 1.001.332 1.477l.332.813-.166.432-.631.365c-1.062-.133-1.881-1.117-2.456-2.954-.399-1.328-.597-2.7-.597-4.115l.032-1.561.035-1.56 2.023.067c.907.021 1.45-.244 1.627-.797-.156-.487-1.34-.774-3.552-.863v-3.252l.1-4.614c.62-.244 1.017-.443 1.195-.597.266-.266.399-.687.399-1.262l-5.577-.066c0 .486.055.84.166 1.062.177.31.498.432.963.364l.199.267v8.132l-.674-.034c-1.1-.023-1.65.244-1.65.797l.133.531c.531.199 1.25.299 2.158.299.066 3.274.298 5.576.697 6.903.752 2.367 2.278 4.017 4.58 4.945a2.54 2.54 0 0 0 .863.133c.642 0 1.212-.249 1.709-.746s.747-1.068.747-1.71m12.049-14.754c0 1.234-.427 2.242-1.278 3.025s-1.898 1.174-3.137 1.174c-1.106 0-2.003-.496-2.689-1.487-.597-.882-.896-1.907-.896-3.075 0-2.712 1.316-4.067 3.95-4.067 1.196 0 2.168.435 2.921 1.306s1.129 1.912 1.129 3.124m2.322.316c0-1.924-.646-3.497-1.94-4.713s-2.905-1.826-4.83-1.826c-1.748 0-3.275.498-4.58 1.494-1.417 1.062-2.124 2.445-2.124 4.149 0 1.946.741 3.54 2.223 4.779 1.394 1.196 3.075 1.793 5.045 1.793 1.703 0 3.154-.51 4.348-1.527 1.239-1.084 1.858-2.468 1.858-4.149m14.538 3.021c0-.687-.222-1.257-.664-1.71s-.995-.681-1.659-.681c-.399 0-.83.2-1.295.598l.531.93c.243.442.365.752.365.929 0 .132-.078.288-.232.464s-.288.266-.399.266c-1.216 0-2.223-.642-3.019-1.925a6.84 6.84 0 0 1-1.029-3.618c0-2.08.542-3.12 1.626-3.12.486 0 .94.354 1.361 1.062l.796 1.694h1.129c0-1.218-.332-2.258-.996-3.12a3.43 3.43 0 0 0-2.855-1.428c-2.566 0-3.849 2.213-3.849 6.638v1.792 1.594c-.574.043-.956.144-1.147.298-.255.199-.393.575-.413 1.129l2.754.299c.421 0 .851-.033 1.295-.1.309-.398.453-.985.431-1.76 1.504 1.661 2.932 2.491 4.282 2.491.73 0 1.411-.272 2.041-.814s.946-1.179.946-1.908m19.482-7.301c-.487-1.55-1.473-2.324-2.954-2.324-2.324 0-3.485 1.781-3.485 5.344v15.865c0 .155-.328.265-.98.332s-.979.276-.979.631c0 .398.288.696.863.895.442.177.885.255 1.328.233l2.224-.067.033-19.615c.044-1.107.465-1.659 1.261-1.659.464 0 1.029.607 1.693 1.825l1.427 2.622c0-1.837-.144-3.198-.431-4.082m6.439 15.334a1.78 1.78 0 0 0-.498-1.262c-.332-.354-.741-.531-1.228-.531-.509 0-.946.193-1.311.581a1.9 1.9 0 0 0-.548 1.344c0 .465.177.868.531 1.212s.752.514 1.196.514c.486 0 .918-.188 1.294-.564s.564-.808.564-1.294m4.183-13.311c0-1.127-.333-2.101-.996-2.919-.709-.885-1.616-1.329-2.722-1.329-2.302 0-3.452 2.091-3.452 6.274l.066 2.257.033 1.858c-.619 0-1.029.066-1.227.199-.266.177-.41.553-.432 1.129 1.261.354 2.456.531 3.584.531.642 0 .963-.962.963-2.887l-.066-2.175-.067-2.174c0-2.146.365-3.22 1.096-3.22.53 0 1.061.598 1.593 1.793l1.162 2.556c.309-.93.465-1.56.465-1.893m13.242 5.145c0-1.394-.498-2.92-1.494-4.58l-2.787-4.082c-.288-.486-1.008-.731-2.158-.731-.288.908-.863 1.892-1.726 2.955l-2.058 2.555c-.664 1.04-.996 2.18-.996 3.419 0 .929.266 1.892.797 2.888.443.177.631.265.565.265.575 0 .862-.321.862-.962 0-.133-.038-.322-.115-.565s-.118-.431-.118-.564c0-.908.609-2.124 1.827-3.651l2.788-3.253c1.592 1.88 2.389 3.751 2.389 5.61 0 .664-.099 1.25-.298 1.758-.289.686-.72 1.03-1.294 1.03-.156 0-.366-.072-.631-.216s-.488-.216-.664-.216c-.51 0-.764.243-.764.731 0 .64.287 1.161.863 1.559.509.376 1.095.565 1.759.565 1.107 0 1.959-.498 2.557-1.494.464-.841.696-1.847.696-3.021m14.47-4.248c-.199-1.858-.752-3.23-1.659-4.115s-2.302-1.328-4.183-1.328c-1.637 0-3.042.603-4.215 1.808a5.91 5.91 0 0 0-1.758 4.266c0 2.013.663 3.596 1.991 4.746 1.261 1.084 2.909 1.627 4.945 1.627 1.283 0 2.335-.311 3.153-.93.908-.686 1.361-1.648 1.361-2.887 0-1.173-.52-2.114-1.56-2.822-.907-.641-1.97-.963-3.186-.963-.619 0-1.317.101-2.091.299-1.04.266-1.56.62-1.56 1.063 0 .398.233.597.697.597.243 0 .641-.055 1.195-.166s.974-.166 1.261-.166c.774 0 1.427.155 1.959.465a1.82 1.82 0 0 1 .928 1.659c0 1.483-.841 2.224-2.522 2.224-1.018 0-1.887-.409-2.606-1.228s-1.078-1.748-1.078-2.788c0-1.284.287-2.368.863-3.253.685-1.062 1.626-1.593 2.821-1.593.93 0 1.902.398 2.921 1.195.575.442 1.349 1.206 2.323 2.29m13.409-.897c0-1.327-.542-2.4-1.626-3.219-.996-.752-2.181-1.129-3.552-1.129-1.239 0-2.29.255-3.153.764-1.062.598-1.593 1.482-1.593 2.655 0 .464.188.947.564 1.444s.774.747 1.195.747c.287 0 .531-.133.73-.399s.299-.542.299-.829c0-.178-.05-.421-.149-.73s-.15-.554-.15-.731c0-.354.294-.675.884-.962.502-.244.95-.365 1.343-.365.699 0 1.326.188 1.884.564a1.78 1.78 0 0 1 .835 1.56c0 .797-.595 1.305-1.783 1.526l-3.271.665c-1.189.486-1.783 1.47-1.783 2.954 0 1.084.519 1.935 1.559 2.555.864.532 1.88.797 3.054.797.597 0 1.792-.144 3.584-.431.199-.621.299-1.185.299-1.694 0-.331-.066-1.095-.199-2.29-.398.199-.985.775-1.759 1.727-.598.729-1.273 1.094-2.024 1.094-.51 0-.975-.099-1.395-.298-.509-.266-.763-.63-.763-1.095l.067-.332c.507-.399 1.415-.709 2.72-.93 1.439-.243 2.391-.509 2.855-.796.886-.553 1.328-1.494 1.328-2.822m6.97-2.621c0-.443-.177-.83-.531-1.162s-.752-.498-1.195-.498-.813.149-1.112.448a1.51 1.51 0 0 0-.447 1.112c0 .399.143.79.431 1.178s.619.581.996.581c1.238 0 1.858-.554 1.858-1.659m6.506 0c0-.443-.178-.83-.531-1.162s-.753-.498-1.196-.498-.813.149-1.111.448-.448.669-.448 1.112c0 .399.143.79.432 1.178s.619.581.995.581c1.239 0 1.859-.554 1.859-1.659m6.505 0c0-.443-.178-.83-.531-1.162a1.7 1.7 0 0 0-1.195-.498c-.443 0-.813.149-1.112.448s-.448.669-.448 1.112c0 .399.143.79.432 1.178s.619.581.996.581c1.238 0 1.858-.554 1.858-1.659"/></g><g fill="#02923f"><path d="M374.474 539.116v-13.47h-1.072c-.488 3.632-1.674 6.406-3.561 8.322s-4.29 2.875-7.207 2.875c-1.001 0-1.916-.172-2.745-.516s-1.56-.793-2.188-1.351-1.116-1.194-1.459-1.91a5.09 5.09 0 0 1-.515-2.229 4.95 4.95 0 0 1 .429-2.037c.286-.645 1.172-1.653 2.66-3.025l6.649-3.904 7.422-4.547c1.343-1.03 2.373-2.252 3.088-3.668s1.072-2.895 1.072-4.439a9.9 9.9 0 0 0-.901-4.162c-.6-1.316-1.436-2.466-2.508-3.454s-2.368-1.772-3.883-2.359-3.175-.879-4.976-.879c-1.144 0-2.202.086-3.175.258-.171.028-.622.149-1.351.364l-2.338.665-2.316.644-1.244.3c-.487 0-.865-.144-1.137-.429s-.479-.887-.622-1.802h-1.073v13.384h1.073c.514-2.745 1.186-4.848 2.016-6.307.4-.685.936-1.322 1.609-1.908a11.65 11.65 0 0 1 2.274-1.544c.842-.444 1.75-.787 2.723-1.029a12.22 12.22 0 0 1 2.961-.365c1.2 0 2.28.171 3.238.514s1.773.808 2.445 1.395a6.07 6.07 0 0 1 1.545 2.037c.357.773.536 1.588.536 2.445 0 .973-.265 1.944-.794 2.917s-1.423 1.931-2.681 2.875l-4.375 2.616c-3.232 1.86-6.107 3.647-8.623 5.363-1.402 1.115-2.467 2.338-3.196 3.667s-1.094 2.81-1.094 4.441a9.29 9.29 0 0 0 .858 3.925c.572 1.243 1.366 2.338 2.381 3.281s2.223 1.688 3.625 2.231 2.917.815 4.547.815c2.059 0 4.247-.501 6.564-1.502l1.372-.558c.371-.143.672-.2.901-.17.515 0 .929.142 1.244.428s.557.886.73 1.802zm35.942-13.512v-15.958l.108-4.205c.071-1.001.178-1.736.321-2.209s.343-.758.601-.857.586-.151.987-.151c.543 0 1.215.157 2.016.472l.386-.987-7.893-3.259h-1.288v5.576l-2.981-3.002c-.815-.745-1.551-1.309-2.209-1.695s-1.273-.629-1.844-.73-1.202-.149-1.888-.149c-2.402 0-4.126.892-5.17 2.68s-1.565 4.311-1.565 7.572v11.754c0 .886-.072 1.594-.214 2.124s-.38.936-.708 1.222-.751.478-1.266.579-1.158.15-1.93.15h-.343v1.073h9.222v-17.632c0-1.259.122-2.28.365-3.067s.564-1.394.965-1.822a2.94 2.94 0 0 1 1.395-.859 6.29 6.29 0 0 1 1.651-.215c.829 0 1.759.258 2.788.774s2.274 1.501 3.732 2.959v14.885c0 .744-.057 1.366-.171 1.867s-.329.9-.644 1.201-.743.514-1.286.643-1.244.193-2.102.193v1.073zm18.913-7.208v-9.824c0-2.116.086-3.517.257-4.204.114-.572.344-1.108.687-1.609s.772-.943 1.286-1.329a6.36 6.36 0 0 1 1.781-.923c.672-.229 1.394-.342 2.166-.342 1.115 0 2.109.264 2.982.794s1.609 1.256 2.209 2.187 1.051 2.038 1.351 3.324.45 2.689.45 4.204c0 1.659-.165 3.189-.493 4.59s-.801 2.617-1.415 3.647-1.359 1.838-2.231 2.423a5.09 5.09 0 0 1-2.896.88 10.7 10.7 0 0 1-1.2-.064c-.373-.043-.773-.18-1.202-.408s-.937-.609-1.523-1.136-1.323-1.266-2.209-2.21m-9.18 4.59l8.107 3.261h1.073v-6.135c1.373 2.316 2.738 3.939 4.097 4.869s2.795 1.394 4.311 1.394c1.487 0 2.838-.343 4.054-1.03s2.252-1.623 3.11-2.809 1.523-2.568 1.994-4.14.708-3.246.708-5.019c0-2.002-.278-3.904-.837-5.706s-1.358-3.388-2.401-4.761-2.31-2.46-3.797-3.26-3.146-1.201-4.976-1.201l-1.78.085c-.53.057-1.037.172-1.523.343s-.965.415-1.437.729-.98.715-1.523 1.201v-8.02l.086-2.232c.057-.543.143-.971.257-1.287s.264-.543.45-.686.408-.286.665-.429c.543-.286 1.545-.429 3.003-.429v-1.029h-13.813v1.029h.729a14.51 14.51 0 0 1 1.673.086c.487.057.887.257 1.201.6s.559.865.73 1.566.257 1.694.257 2.982v24.88l-.107 2.423c-.071.616-.193 1.088-.365 1.417s-.407.543-.707.643-.68.15-1.137.15c-.229 0-.493-.036-.794-.107a6.27 6.27 0 0 1-.965-.322zm41.006-5.662h12.183c-.143 2.431-.723 4.21-1.738 5.34s-2.338 1.695-3.967 1.695a5.78 5.78 0 0 1-2.274-.473c-.744-.314-1.409-.771-1.995-1.372s-1.08-1.336-1.48-2.209-.644-1.866-.729-2.981m0-1.631c0-1.973.264-3.731.793-5.275s1.23-2.861 2.103-3.948 1.887-1.916 3.045-2.487a8.19 8.19 0 0 1 3.668-.858c1.716 0 3.21.471 4.483 1.415s2.337 2.574 3.196 4.89l.9-.557c-.2-1.287-.6-2.552-1.201-3.797s-1.366-2.358-2.295-3.346a11.09 11.09 0 0 0-3.238-2.38c-1.229-.601-2.575-.901-4.033-.901a10.4 10.4 0 0 0-4.44.966c-1.387.642-2.603 1.557-3.646 2.744s-1.874 2.617-2.488 4.29-.923 3.553-.923 5.642c0 2.257.315 4.274.944 6.048s1.486 3.275 2.574 4.504a10.66 10.66 0 0 0 3.839 2.787c1.473.628 3.068.946 4.783.946 1.459 0 2.803-.251 4.033-.752s2.295-1.216 3.196-2.145 1.609-2.051 2.124-3.367.771-2.788.771-4.419zm34.656 10.683v-5.921c2.231 3.947 4.504 5.921 6.82 5.921.515 0 .994-.087 1.437-.258a3.64 3.64 0 0 0 1.159-.708 3.37 3.37 0 0 0 .772-1.029c.187-.387.279-.794.279-1.223 0-.745-.251-1.373-.751-1.887s-1.094-.773-1.78-.773c-.315 0-.68.1-1.094.3a10 10 0 0 0-1.201.687l-1.073.687c-.329.199-.579.3-.75.3-.515 0-1.115-.415-1.802-1.244s-1.358-1.887-2.016-3.175v-12.655c0-.772.049-1.473.15-2.102s.307-1.165.622-1.608.779-.787 1.395-1.03 1.436-.364 2.466-.364v-1.03h-13.513v1.03c.858 0 1.551.057 2.081.171s.95.343 1.265.686.529.837.643 1.481.172 1.494.172 2.553v10.209l-.064 3.646-.15 1.802c-.287 1.143-.93 1.716-1.931 1.716a4.22 4.22 0 0 1-.944-.108c-.315-.071-.672-.179-1.072-.322l-.257 1.03 7.936 3.218zm62.319 12.74v-13.47h-1.072c-.487 3.632-1.673 6.406-3.561 8.322s-4.29 2.875-7.207 2.875c-1.001 0-1.916-.172-2.745-.516a7.69 7.69 0 0 1-2.188-1.351c-.629-.557-1.115-1.194-1.458-1.91a5.09 5.09 0 0 1-.516-2.229 4.95 4.95 0 0 1 .43-2.037c.285-.645 1.172-1.653 2.66-3.025l6.649-3.904 7.421-4.547c1.344-1.03 2.374-2.252 3.088-3.668a9.72 9.72 0 0 0 1.073-4.439c0-1.459-.301-2.847-.901-4.162a10.69 10.69 0 0 0-2.509-3.454c-1.072-.988-2.367-1.772-3.882-2.359s-3.175-.879-4.977-.879c-1.144 0-2.202.086-3.174.258-.172.028-.622.149-1.352.364l-2.337.665-2.317.644-1.244.3c-.486 0-.865-.144-1.136-.429s-.48-.887-.623-1.802h-1.072v13.384h1.072c.515-2.745 1.187-4.848 2.017-6.307a7.68 7.68 0 0 1 1.608-1.908 11.71 11.71 0 0 1 2.274-1.544c.843-.444 1.751-.787 2.724-1.029s1.959-.365 2.96-.365c1.201 0 2.28.171 3.238.514s1.773.808 2.446 1.395a6.06 6.06 0 0 1 1.544 2.037 5.75 5.75 0 0 1 .536 2.445c0 .973-.264 1.944-.794 2.917s-1.423 1.931-2.681 2.875l-4.375 2.616c-3.232 1.86-6.106 3.647-8.622 5.363-1.402 1.115-2.467 2.338-3.197 3.667s-1.093 2.81-1.093 4.441a9.29 9.29 0 0 0 .857 3.925c.572 1.243 1.366 2.338 2.381 3.281s2.224 1.688 3.626 2.231 2.917.815 4.547.815c2.059 0 4.246-.501 6.563-1.502l1.373-.558c.371-.143.671-.2.901-.17.514 0 .928.142 1.244.428s.557.886.729 1.802zm20.158-20.72v-9.824c0-2.116.085-3.517.257-4.204.114-.572.344-1.108.686-1.609a5.7 5.7 0 0 1 1.287-1.329c.515-.387 1.108-.694 1.78-.923s1.395-.342 2.167-.342c1.115 0 2.109.264 2.981.794s1.609 1.256 2.21 2.187 1.05 2.038 1.351 3.324.45 2.689.45 4.204c0 1.659-.165 3.189-.493 4.59s-.801 2.617-1.416 3.647-1.358 1.838-2.23 2.423a5.09 5.09 0 0 1-2.896.88c-.429 0-.83-.022-1.201-.064s-.772-.18-1.201-.408-.938-.609-1.524-1.136l-2.208-2.21m-9.181 4.59l8.108 3.261h1.073v-6.135c1.373 2.316 2.737 3.939 4.097 4.869s2.794 1.394 4.31 1.394c1.488 0 2.839-.343 4.054-1.03s2.252-1.623 3.11-2.809 1.523-2.568 1.995-4.14.708-3.246.708-5.019c0-2.002-.279-3.904-.837-5.706s-1.358-3.388-2.402-4.761-2.309-2.46-3.796-3.26-3.146-1.201-4.976-1.201l-1.781.085c-.529.057-1.037.172-1.523.343a6.53 6.53 0 0 0-1.437.729c-.471.315-.98.715-1.522 1.201v-8.02l.085-2.232c.058-.543.143-.971.258-1.287s.264-.543.45-.686.408-.286.665-.429c.543-.286 1.544-.429 3.003-.429v-1.029h-13.813v1.029h.729c.629 0 1.186.029 1.673.086s.887.257 1.201.6.558.865.729 1.566.258 1.694.258 2.982v24.88l-.108 2.423c-.071.616-.192 1.088-.364 1.417s-.408.543-.708.643-.68.15-1.136.15a3.5 3.5 0 0 1-.794-.107c-.3-.072-.622-.179-.965-.322zm41.006-5.662h12.183c-.143 2.431-.723 4.21-1.738 5.34s-2.338 1.695-3.967 1.695a5.78 5.78 0 0 1-2.274-.473c-.744-.314-1.409-.771-1.995-1.372s-1.08-1.336-1.48-2.209-.644-1.866-.729-2.981m0-1.631c0-1.973.264-3.731.793-5.275s1.23-2.861 2.103-3.948 1.887-1.916 3.045-2.487a8.19 8.19 0 0 1 3.668-.858c1.716 0 3.21.471 4.483 1.415s2.338 2.574 3.196 4.89l.9-.557c-.2-1.287-.601-2.552-1.201-3.797a13.22 13.22 0 0 0-2.295-3.346 11.1 11.1 0 0 0-3.238-2.38c-1.229-.601-2.575-.901-4.033-.901a10.4 10.4 0 0 0-4.44.966c-1.387.642-2.603 1.557-3.646 2.744s-1.874 2.617-2.488 4.29-.923 3.553-.923 5.642c0 2.257.315 4.274.944 6.048s1.487 3.275 2.574 4.504 2.367 2.159 3.84 2.787 3.067.946 4.782.946c1.459 0 2.803-.251 4.033-.752s2.295-1.216 3.196-2.145 1.609-2.051 2.124-3.367.771-2.788.771-4.419zm49.327-6.434c-.343-1.745-.879-3.289-1.608-4.633s-1.587-2.474-2.574-3.388a10.5 10.5 0 0 0-3.239-2.081 9.59 9.59 0 0 0-3.603-.708c-1.458 0-2.861.33-4.205.987s-2.53 1.588-3.56 2.788-1.852 2.66-2.467 4.376-.921 3.646-.921 5.791c0 2.059.335 3.946 1.008 5.662s1.579 3.189 2.724 4.419a12.35 12.35 0 0 0 3.989 2.874 11.62 11.62 0 0 0 4.848 1.03c1.286 0 2.466-.193 3.539-.58s2.008-.886 2.809-1.501 1.423-1.302 1.866-2.058.665-1.496.665-2.21c0-.745-.236-1.337-.708-1.781s-1.136-.665-1.995-.665c-.886 0-1.615.222-2.186.665s-.916 1.367-1.03 2.768c-.23 2.287-1.531 3.432-3.905 3.432-1.143 0-2.151-.258-3.023-.773s-1.603-1.209-2.189-2.081-1.029-1.887-1.33-3.045-.449-2.382-.449-3.668c0-1.516.192-2.988.578-4.419s.951-2.702 1.695-3.818 1.644-2.009 2.703-2.681 2.258-1.008 3.603-1.008c.801 0 1.566.101 2.295.301s1.43.55 2.102 1.05 1.315 1.186 1.93 2.059 1.223 1.981 1.824 3.326zm15.738 30.887c.829 0 1.523-.279 2.081-.836s.837-1.252.837-2.081c0-.801-.28-1.487-.837-2.059s-1.252-.858-2.081-.858-1.522.285-2.08.858a2.84 2.84 0 0 0-.836 2.059c0 .829.278 1.523.836 2.081s1.251.836 2.08.836m2.402-13.77v-21.149c0-1.259.072-2.224.215-2.895s.379-1.159.708-1.459.743-.472 1.243-.514l1.824-.065v-1.03h-12.784v1.03c.887 0 1.594.065 2.123.194s.937.378 1.224.75.465.88.536 1.522.107 1.465.107 2.467v10.124l-.085 3.946c-.059.973-.158 1.695-.301 2.166s-.351.774-.622.902-.622.193-1.052.193c-.285 0-.578-.036-.879-.107a10.49 10.49 0 0 1-1.051-.323l-.428 1.031 7.936 3.217zm27.449-21.449v10.037l-6.863-3.088c-.944-.486-1.68-1.173-2.209-2.058s-.794-1.874-.794-2.96a5.18 5.18 0 0 1 .344-1.91c.228-.586.528-1.093.901-1.523a4.04 4.04 0 0 1 1.308-1.008 3.54 3.54 0 0 1 1.565-.364c1.459 0 3.375.957 5.748 2.874m0-1.888l-3.323-2.466c-.845-.616-1.438-.995-1.781-1.137-1.059-.486-2.16-.73-3.303-.73-.916 0-1.752.165-2.51.493a5.96 5.96 0 0 0-1.973 1.374c-.557.585-.995 1.293-1.309 2.123s-.472 1.759-.472 2.789c0 1.201.236 2.273.708 3.216s1.201 1.809 2.189 2.596 2.265 1.508 3.838 2.166l7.936 3.261v1.029c0 1.316-.106 2.416-.321 3.303s-.536 1.595-.965 2.124-.943.9-1.545 1.115-1.286.321-2.059.321c-1.229 0-2.203-.329-2.917-.986s-1.072-1.401-1.072-2.231l.086-1.673c0-.887-.222-1.566-.665-2.037s-1.037-.708-1.78-.708c-.716 0-1.302.25-1.76.751s-.686 1.179-.686 2.038c0 .8.214 1.594.644 2.381s1.057 1.494 1.888 2.123 1.837 1.136 3.023 1.522 2.553.58 4.097.58c2.03 0 3.754-.301 5.17-.901s2.437-1.63 3.067-3.089c.343-.829.514-2.517.514-5.062v-8.922l.064-3.497c.043-.815.121-1.409.237-1.78s.257-.594.428-.665.387-.107.644-.107a1.72 1.72 0 0 1 .557.086c.172.057.372.171.601.343a7.63 7.63 0 0 1 .794.708l1.18 1.179v-1.63c-2.145-2.86-4.191-4.289-6.135-4.289-.915 0-1.659.321-2.231.965s-.858 1.751-.858 3.324m25.52 37.107v-34.919c0-1.201.064-2.131.193-2.788s.357-1.152.686-1.48.765-.522 1.309-.58 1.229-.085 2.059-.085v-1.03h-12.913v1.03c.858 0 1.544.065 2.06.194s.908.378 1.179.75.45.88.536 1.522.129 1.465.129 2.467v23.895l-.107 4.182c-.071.987-.187 1.708-.343 2.166s-.365.722-.622.794a3.55 3.55 0 0 1-.943.108c-.545 0-1.174-.159-1.889-.473l-.472 1.029 7.85 3.218zm19.256 0c.829 0 1.522-.279 2.081-.836s.836-1.252.836-2.081c0-.801-.279-1.487-.836-2.059s-1.252-.858-2.081-.858-1.522.285-2.08.858-.837 1.258-.837 2.059c0 .829.278 1.523.837 2.081s1.25.836 2.08.836m2.402-13.77v-21.149c0-1.259.072-2.224.215-2.895s.378-1.159.707-1.459.743-.472 1.244-.514l1.824-.065v-1.03h-12.785v1.03c.888 0 1.595.065 2.124.194s.937.378 1.223.75.465.88.536 1.522.108 1.465.108 2.467v10.124l-.085 3.946c-.059.973-.159 1.695-.301 2.166s-.351.774-.622.902-.622.193-1.052.193c-.285 0-.578-.036-.879-.107a10.5 10.5 0 0 1-1.052-.323l-.427 1.031 7.935 3.217zm20.157 7.85v-8.622h6.135v-2.017h-6.135v-17.073c0-.857.064-1.573.192-2.145s.316-1.015.558-1.33a2.02 2.02 0 0 1 .837-.665 2.7 2.7 0 0 1 1.029-.192c.658 0 1.28.192 1.866.578s1.037.966 1.352 1.737h1.115c-.658-1.887-1.601-3.302-2.831-4.246s-2.503-1.416-3.817-1.416c-1.517 0-2.733.53-3.648 1.588s-1.372 2.873-1.372 5.448v17.716h-4.204v.944c1.63.629 3.095 1.71 4.398 3.239s2.508 3.682 3.625 6.456zm12.478-8.622h12.27v-1.073h-.601c-.858 0-1.502-.187-1.931-.557a1.79 1.79 0 0 1-.643-1.416c0-.772.315-1.802.944-3.088l6.391-13.3 5.92 14.543c.314.8.471 1.587.471 2.36 0 .457-.149.814-.449 1.072s-1.038.386-2.209.386v1.073h8.579v-1.073c-.514-.058-.937-.128-1.265-.214s-.623-.258-.879-.515-.516-.643-.774-1.158l-.943-2.102-10.725-26.253c-.513-1.259-1.13-2.373-1.843-3.347s-1.466-1.779-2.253-2.424-1.595-1.129-2.423-1.458-1.63-.493-2.404-.493c-.571 0-1.092.085-1.565.258a3.8 3.8 0 0 0-1.222.707 3.22 3.22 0 0 0-.794 1.03 2.78 2.78 0 0 0-.278 1.222c0 .801.264 1.444.793 1.93s1.25.73 2.166.73c.2 0 .507-.057.923-.172l1.265-.364 1.159-.366c.342-.114.557-.17.642-.17.573 0 1.195.307 1.866.921s1.366 1.767 2.082 3.454l1.886 4.547-9.479 19.862c-.516 1.172-1.131 2.131-1.846 2.874s-1.658 1.244-2.831 1.501zm89.775 13.512l.9-13.256h-.9c-1.201 3.975-2.896 6.835-5.084 8.58s-4.826 2.616-7.915 2.616c-2.002 0-3.846-.378-5.534-1.136s-3.138-1.924-4.353-3.496-2.167-3.546-2.853-5.92-1.03-5.177-1.03-8.409c0-2.602.322-4.961.965-7.077s1.588-3.925 2.831-5.426a12.58 12.58 0 0 1 4.569-3.475c1.801-.815 3.875-1.223 6.22-1.223 2.46 0 4.69.543 6.693 1.63 1.916 1.001 4.046 3.146 6.391 6.435l.902-.558c-1.975-3.461-4.255-5.999-6.843-7.614s-5.684-2.424-9.287-2.424c-2.775 0-5.319.486-7.637 1.459s-4.31 2.337-5.983 4.097-2.982 3.845-3.925 6.262-1.417 5.069-1.417 7.958c0 3.917.872 7.492 2.617 10.725 1.716 3.259 4.105 5.775 7.164 7.549 3.089 1.802 6.435 2.703 10.038 2.703 2.831 0 5.606-.687 8.323-2.06.8-.428 1.373-.643 1.716-.643.628 0 1.151.258 1.566.772s.708 1.159.879 1.931zm25.862-34.189v10.037l-6.863-3.088c-.944-.486-1.68-1.173-2.209-2.058s-.794-1.874-.794-2.96a5.18 5.18 0 0 1 .344-1.91c.228-.586.528-1.093.901-1.523a4.04 4.04 0 0 1 1.308-1.008c.501-.243 1.022-.364 1.566-.364 1.458 0 3.374.957 5.747 2.874m0-1.888l-3.323-2.466c-.845-.616-1.438-.995-1.781-1.137a7.83 7.83 0 0 0-3.303-.73c-.916 0-1.752.165-2.509.493a5.97 5.97 0 0 0-1.974 1.374c-.558.587-.995 1.293-1.308 2.123s-.472 1.759-.472 2.789c0 1.201.235 2.273.707 3.216s1.201 1.809 2.189 2.596 2.266 1.508 3.838 2.166l7.936 3.261v1.029c0 1.316-.106 2.416-.32 3.303s-.536 1.595-.966 2.124-.943.9-1.545 1.115-1.286.321-2.058.321c-1.23 0-2.203-.329-2.918-.986s-1.072-1.401-1.072-2.231l.086-1.673c0-.887-.222-1.566-.665-2.037s-1.037-.708-1.78-.708c-.716 0-1.302.25-1.759.751s-.687 1.179-.687 2.038c0 .8.215 1.594.644 2.381s1.058 1.494 1.888 2.123 1.838 1.136 3.023 1.522 2.553.58 4.097.58c2.031 0 3.754-.301 5.17-.901s2.438-1.63 3.067-3.089c.343-.829.515-2.517.515-5.062v-8.922l.064-3.497c.042-.815.121-1.409.236-1.78s.257-.594.429-.665a1.69 1.69 0 0 1 .643-.107 1.73 1.73 0 0 1 .558.086c.171.057.371.171.601.343s.493.408.793.708l1.18 1.179v-1.63c-2.145-2.86-4.191-4.289-6.134-4.289-.916 0-1.659.321-2.232.965s-.858 1.751-.858 3.324m24.146 23.337v-5.921c2.231 3.947 4.505 5.921 6.821 5.921a3.97 3.97 0 0 0 1.438-.258c.442-.172.828-.407 1.158-.708a3.34 3.34 0 0 0 .771-1.029c.186-.387.28-.794.28-1.223 0-.745-.251-1.373-.751-1.887s-1.094-.773-1.78-.773c-.316 0-.68.1-1.094.3a10 10 0 0 0-1.201.687l-1.073.687c-.329.199-.579.3-.752.3-.513 0-1.114-.415-1.8-1.244s-1.36-1.887-2.017-3.175v-12.655c0-.772.05-1.473.15-2.102s.307-1.165.622-1.608.78-.787 1.395-1.03 1.437-.364 2.467-.364v-1.03h-13.514v1.03c.859 0 1.551.057 2.081.171s.95.343 1.266.686.528.837.643 1.481.171 1.494.171 2.553v10.209l-.064 3.646-.15 1.802c-.286 1.143-.929 1.716-1.93 1.716-.316 0-.629-.036-.944-.108a9.42 9.42 0 0 1-1.073-.322l-.257 1.03 7.937 3.218zm21.616-9.052h12.183c-.144 2.431-.722 4.21-1.737 5.34s-2.339 1.695-3.969 1.695c-.772 0-1.53-.158-2.274-.473a6.04 6.04 0 0 1-1.994-1.372c-.587-.6-1.079-1.336-1.48-2.209s-.643-1.866-.729-2.981m0-1.631c0-1.973.264-3.731.794-5.275s1.228-2.861 2.102-3.948 1.887-1.916 3.044-2.487a8.19 8.19 0 0 1 3.668-.858c1.717 0 3.211.471 4.484 1.415s2.338 2.574 3.196 4.89l.9-.557c-.2-1.287-.6-2.552-1.201-3.797s-1.366-2.358-2.295-3.346a11.09 11.09 0 0 0-3.238-2.38c-1.229-.601-2.574-.901-4.033-.901-1.573 0-3.053.321-4.441.966s-2.602 1.557-3.645 2.744-1.873 2.617-2.488 4.29-.922 3.553-.922 5.642c0 2.257.314 4.274.943 6.048s1.486 3.275 2.573 4.504a10.66 10.66 0 0 0 3.841 2.787c1.473.628 3.067.946 4.782.946 1.459 0 2.803-.251 4.033-.752s2.295-1.216 3.196-2.145 1.608-2.051 2.123-3.367.772-2.788.772-4.419z"/></g><g fill="#e21c2b"><path d="M384.625 627.586c2.742-1.193 5.306-2.981 7.691-5.366l-7.154-7.154c-2.385 2.862-5.724 4.293-10.016 4.293s-7.035-1.014-8.227-3.041-1.193-3.755 0-5.187 3.935-2.503 8.227-3.219c4.531-.477 8.644-1.967 12.341-4.471s5.544-6.499 5.544-11.983c0-4.292-1.973-7.989-5.92-11.089s-8.543-4.65-13.789-4.65c-4.985 0-9.146.716-12.484 2.146s-6.2 3.339-8.585 5.724l7.154 7.154c2.385-2.862 6.439-4.532 12.162-5.008 4.769 0 7.744 1.013 8.925 3.04s1.18 4.054 0 6.082-4.156 3.278-8.925 3.755c-4.292.477-8.227 1.788-11.804 3.935s-5.366 5.842-5.366 11.088c0 4.745 2.033 8.555 6.099 11.429s8.245 4.311 12.538 4.311c4.984 0 8.847-.597 11.589-1.789m37.523-41.135v4.042c-.954 1.836-3.219 2.754-6.796 2.754-4.293-.477-6.558-2.146-6.797-5.007.239-2.839 2.504-4.377 6.797-4.615 3.577 0 5.842.942 6.796 2.826m-19.673 20.747c4.53 2.861 9.777 4.292 15.738 4.292 4.293 0 7.691-1.193 10.195-3.577s3.756-5.962 3.756-10.731V575.72h-10.016v2.862c-2.91-1.908-5.533-2.862-7.87-2.862-4.769 0-8.346 1.013-10.731 3.041s-3.576 4.829-3.576 8.405c0 3.339 1.126 6.32 3.38 8.943s5.896 3.935 10.927 3.935c2.313 0 4.937-.716 7.87-2.147v1.074c-.048 2.623-1.956 4.053-5.723 4.292-4.293 0-7.631-.715-10.016-2.146zm48.646-8.729v-22.75h-10.016v34.733l10.016 1.073v-3.255c2.408 2.146 5.27 3.22 8.584 3.22 4.531 0 7.989-1.372 10.374-4.114s3.577-5.902 3.577-9.479v-22.178h-10.015v19.674c0 2.384-.597 4.233-1.789 5.544s-2.993 2.004-5.401 2.075c-2.075-.143-3.852-1.658-5.33-4.543m32.694 21.606c0-1.431.477-2.624 1.431-3.577s2.265-1.431 3.935-1.431 2.98.477 3.934 1.431 1.431 2.146 1.431 3.577-.477 2.629-1.431 3.595-2.289 1.448-4.006 1.448c-1.622 0-2.91-.482-3.863-1.448s-1.431-2.164-1.431-3.595m-6.796-51.509c4.793.215 7.19 2.826 7.19 7.834v35.09h10.051l-.036-36.879c0-4.268-1.193-7.714-3.577-10.337s-5.7-3.935-9.944-3.935h-7.225v8.227z"/><use xlink:href="#B"/><path d="M565.371 601.653c-1.431 1.073-3.101 1.61-5.008 1.61s-3.577-.537-5.008-1.61-2.146-2.563-2.146-4.471h14.308c0 1.908-.715 3.398-2.146 4.471m-22.893-8.048c0 5.246 1.669 9.538 5.008 12.877s7.631 5.008 12.877 5.008 9.419-1.67 12.52-5.008 4.65-7.631 4.65-12.877v-3.577h-24.682c.238-1.908 1.073-3.398 2.504-4.471s3.1-1.61 5.008-1.61c3.339 0 6.319.954 8.943 2.862l5.723-5.723c-2.624-3.578-7.512-5.366-14.666-5.366-5.246 0-9.539 1.669-12.877 5.008s-5.008 7.631-5.008 12.877m50.113 17.885l8.406-22.356 8.585 22.356h10.158l-14.343-35.77h-8.585l-14.38 35.77zm54.013-25.039v4.042c-.953 1.836-3.219 2.754-6.795 2.754-4.293-.477-6.559-2.146-6.797-5.007.238-2.839 2.504-4.377 6.797-4.615 3.576 0 5.842.942 6.795 2.826m-19.672 20.747c4.529 2.861 9.776 4.292 15.738 4.292 4.293 0 7.69-1.193 10.194-3.577s3.756-5.962 3.756-10.731V575.72h-10.016v2.862c-2.908-1.908-5.531-2.862-7.869-2.862-4.77 0-8.346 1.013-10.731 3.041s-3.576 4.829-3.576 8.405c0 3.339 1.126 6.32 3.38 8.943s5.896 3.935 10.927 3.935c2.312 0 4.937-.716 7.869-2.147v1.074c-.047 2.623-1.955 4.053-5.723 4.292-4.293 0-7.631-.715-10.015-2.146zm48.646-8.729v-22.75h-10.016v34.733l10.016 1.073v-3.255c2.408 2.146 5.27 3.22 8.585 3.22 4.53 0 7.988-1.372 10.373-4.114s3.577-5.902 3.577-9.479v-22.178h-10.015v19.674c0 2.384-.597 4.233-1.79 5.544s-2.992 2.004-5.401 2.075c-2.074-.143-3.85-1.658-5.329-4.543m40.957 13.056h-10.016v-35.806h10.016zm-8.942 12.144c.953.966 2.241 1.449 3.863 1.449 1.717 0 3.052-.483 4.006-1.449s1.431-2.164 1.431-3.594-.478-2.624-1.431-3.577-2.266-1.431-3.935-1.431-2.981.476-3.934 1.431-1.431 2.146-1.431 3.577.477 2.629 1.431 3.594m54.263-15.756h15.023c4.316.072 6.534 2.039 6.654 5.902-.12 3.529-2.302 5.366-6.546 5.509h-15.131zm-10.731-32.193v53.655h23.393c12.52 0 18.779-5.15 18.779-15.452 0-10.684-6.248-16.026-18.743-16.026h-12.698V575.72zm49.255 53.655h10.016V575.72H800.38zm42.065-40.957v23.107h10.016V575.72h-10.016v3.255c-2.409-2.146-5.271-3.22-8.585-3.22-4.531 0-7.989 1.371-10.373 4.114s-3.577 5.902-3.577 9.479v22.177h10.015v-19.673c0-2.385.596-4.233 1.789-5.544s2.992-2.003 5.401-2.075c2.075.143 3.851 1.538 5.33 4.185"/><use xlink:href="#C"/><path d="M920.173 575.72v53.655h10.731v-21.462h25.003v21.498h10.732v-53.655l-10.732-.036v22.177h-25.003V575.72zm73.364 8.299c2.719 0 4.924.912 6.618 2.736s2.539 4.096 2.539 6.814-.846 4.996-2.539 6.832-3.912 2.755-6.653 2.755c-2.695 0-4.889-.919-6.582-2.755s-2.54-4.113-2.54-6.832.846-4.989 2.54-6.814 3.899-2.736 6.617-2.736m-12.984-3.416c-3.482 3.493-5.223 7.827-5.223 13.002 0 5.199 1.741 9.539 5.223 13.02s7.821 5.223 13.02 5.223 9.538-1.741 13.021-5.223 5.221-7.821 5.221-13.02-1.74-9.539-5.221-13.02-7.823-5.223-13.021-5.223-9.539 1.747-13.02 5.241m58.269 29.885c1.86-.811 3.601-2.016 5.223-3.613l-5.58-6.295c-1.622 1.931-3.649 2.897-6.081 2.897-2.41 0-4.019-.447-4.83-1.342s-.81-1.705 0-2.432 2.42-1.329 4.83-1.806c3.552-.334 6.461-1.347 8.727-3.04s3.398-4.639 3.398-8.836c0-3.386-1.335-6.009-4.005-7.869s-5.784-2.79-9.337-2.79c-3.386 0-6.206.482-8.459 1.448s-4.192 2.26-5.813 3.882l5.544 6.259c1.621-1.931 4.137-3.052 7.548-3.362 2.742 0 4.513.447 5.312 1.341s.918 1.789.357 2.683-2.45 1.496-5.669 1.806c-2.91.334-5.575 1.228-7.995 2.683s-3.631 4.197-3.631 8.227c0 3.696 1.378 6.516 4.132 8.46s5.586 2.915 8.495 2.915c3.362 0 5.974-.405 7.834-1.216m22.858-13.628v-5.795c.478-4.006 2.981-6.355 7.512-7.046 5.723.452 8.942 3.421 9.658 8.906-.238 6.677-3.458 10.135-9.658 10.373-4.531-.715-7.034-2.861-7.512-6.438m-10.016-36.164v49.757l10.016 1.073v-2.862c2.671 1.907 5.294 2.862 7.87 2.862 5.484 0 9.836-1.789 13.056-5.366s4.829-7.75 4.829-12.519-1.609-8.943-4.829-12.52-7.572-5.365-13.056-5.365c-3.577.238-6.201 1.204-7.87 2.897v-17.992zm52.94 50.829h-10.016v-35.806h10.016zm-8.943 12.144c.953.966 2.241 1.449 3.863 1.449 1.717 0 3.052-.483 4.006-1.449s1.431-2.164 1.431-3.594-.478-2.624-1.431-3.577-2.265-1.431-3.934-1.431-2.982.476-3.935 1.431-1.431 2.146-1.431 3.577.477 2.629 1.431 3.594m33.839-47.949c-4.055 0-7.273 1.132-9.658 3.398s-3.577 5.187-3.577 8.764v15.488h-5.366v8.084h5.366v9.694l10.051 1.073v-10.767h5.366v-8.084h-5.366v-14.057c0-1.908.4-3.25 1.199-4.025s1.83-1.162 3.093-1.162c.382 0 1.276.155 2.684.465l2.11-7.19c-1.717-1.121-3.684-1.681-5.902-1.681m32.335 10.731v4.042c-.953 1.836-3.219 2.754-6.796 2.754-4.292-.477-6.558-2.146-6.796-5.007.238-2.839 2.504-4.377 6.796-4.615 3.577 0 5.843.942 6.796 2.826m-19.673 20.747c4.53 2.861 9.777 4.292 15.738 4.292 4.293 0 7.691-1.193 10.195-3.577s3.756-5.962 3.756-10.731V575.72h-10.016v2.862c-2.909-1.908-5.532-2.862-7.869-2.862-4.77 0-8.347 1.013-10.731 3.041s-3.577 4.829-3.577 8.405c0 3.339 1.127 6.32 3.38 8.943s5.897 3.935 10.928 3.935c2.312 0 4.936-.716 7.869-2.147v1.074c-.048 2.623-1.955 4.053-5.723 4.292-4.293 0-7.631-.715-10.015-2.146zm38.632 22.177h10.016V575.72h-10.016z"/></g></g></svg>